<svg aria-hidden="true" style="position: absolute; width: 0; height: 0; overflow: hidden;" version="1.1" xmlns="http://www.w3.org/2000/svg" xmlns:xlink="http://www.w3.org/1999/xlink">
<defs>
<symbol id="icon-facebook" viewBox="0 0 32 32">
<path fill="currentColor" d="M21.341 5.315h2.925v-5.091c-1.233-0.143-2.662-0.224-4.11-0.224-0.052 0-0.104 0-0.157 0l0.008-0c-4.215 0-7.104 2.651-7.104 7.525v4.483h-4.649v5.692h4.649v14.321h5.703v-14.319h4.462l0.708-5.692h-5.171v-3.924c0-1.644 0.443-2.77 2.736-2.77z"></path>
</symbol>
<symbol id="icon-icon-antenna" viewBox="0 0 32 32">
<path fill="#212121" style="fill: var(--color2, #212121)" d="M30.776 22.1l-8.444-8.506 0.937-4.616c0.225 0.090 0.485 0.144 0.758 0.146h0.007c0.008 0 0.017 0 0.026 0 1.193 0 2.159-0.967 2.159-2.159s-0.967-2.159-2.159-2.159c-1.193 0-2.159 0.967-2.159 2.159 0 0.259 0.046 0.508 0.13 0.739l-0.005-0.015-4.96 0.606-8.091-8.134c-0.096-0.098-0.229-0.159-0.377-0.16h-0c-0.14 0.001-0.274 0.057-0.374 0.155l-1.512 1.504c-0.096 0.097-0.156 0.23-0.156 0.377s0.060 0.281 0.156 0.377v0l0.814 0.825c-1.143 2.062-1.816 4.522-1.816 7.14 0 4.106 1.656 7.825 4.336 10.526l-0.001-0.001c0.043 0.041 0.092 0.074 0.146 0.097-0.032 0.164-0.051 0.353-0.052 0.546v6.189h-6.401c-1.472 0.001-2.666 1.194-2.668 2.667v1.067c0 0.295 0.239 0.534 0.534 0.534h24.536c0.294 0 0.533-0.239 0.533-0.534v-1.067c-0.002-1.472-1.195-2.665-2.667-2.667h-6.401v-2.742c1.003 0.21 2.024 0.317 3.049 0.32 2.58-0.003 5.005-0.663 7.118-1.822l-0.077 0.039 0.818 0.823c0.099 0.101 0.235 0.159 0.376 0.16 0.14-0.001 0.274-0.057 0.374-0.155l1.512-1.504c0.096-0.097 0.156-0.23 0.156-0.377s-0.060-0.281-0.156-0.377v0zM23.282 6.234c0.193-0.192 0.459-0.31 0.752-0.31 0.589 0 1.067 0.478 1.067 1.067s-0.478 1.067-1.067 1.067c-0 0-0 0-0 0h-0.004c-0.587-0.003-1.061-0.479-1.061-1.067 0-0.296 0.12-0.563 0.314-0.756l0-0h-0.002zM22.026 9.738l-0.598 2.946-1.175-1.183 1.774-1.763zM21.42 8.836l-1.92 1.909-1.486-1.494 3.406-0.416zM24.006 28.803c0.884 0 1.6 0.716 1.6 1.6v0 0.534h-23.469v-0.534c0-0.884 0.716-1.6 1.6-1.6v0h20.268zM16.539 26.669v1.067h-5.334v-1.067h5.334zM11.205 25.602v-4.054c0-1.294 1.196-2.347 2.667-2.347s2.667 1.053 2.667 2.347v4.054h-5.334zM17.606 23.906v-2.358c0-1.882-1.675-3.413-3.734-3.413-0.017-0-0.038-0-0.058-0-1.353 0-2.54 0.707-3.214 1.771l-0.009 0.016c-2.36-2.482-3.812-5.847-3.812-9.551 0-2.314 0.567-4.496 1.569-6.415l-0.036 0.077 18.604 18.71c-1.823 0.947-3.98 1.502-6.267 1.502-1.079 0-2.129-0.124-3.136-0.357l0.093 0.018zM28.896 23.222l-21.059-21.183 0.754-0.752 7.936 7.981c0.004 0 0.006 0.007 0.010 0.010l13.116 13.193-0.757 0.752z"></path>
<path fill="#2196f3" style="fill: var(--color3, #2196f3)" d="M13.877 20.268h-0.005c-0.001 0-0.002 0-0.002 0-0.884 0-1.6 0.716-1.6 1.6s0.715 1.599 1.598 1.6h0.005c0.001 0 0.001 0 0.002 0 0.884 0 1.6-0.716 1.6-1.6s-0.715-1.599-1.598-1.6h-0zM14.25 22.247c-0.096 0.096-0.23 0.155-0.376 0.155-0.295 0-0.534-0.239-0.534-0.534s0.238-0.533 0.532-0.534h0c0.293 0.001 0.531 0.239 0.531 0.533 0 0.148-0.060 0.282-0.157 0.378l-0 0h0.005z"></path>
</symbol>
<symbol id="icon-icon-astronaut" viewBox="0 0 32 32">
<path fill="#2196f3" style="fill: var(--color3, #2196f3)" d="M31.977 4.524c-0.064-0.191-0.227-0.332-0.427-0.362l-0.003-0-1.911-0.278-0.855-1.731c-0.179-0.365-0.777-0.365-0.956 0l-0.855 1.731-1.911 0.278c-0.26 0.039-0.457 0.26-0.457 0.528 0 0.15 0.062 0.285 0.161 0.382l1.384 1.348-0.326 1.903c-0.034 0.2 0.048 0.402 0.212 0.522 0.166 0.12 0.383 0.135 0.562 0.040l1.709-0.899 1.709 0.899c0.072 0.038 0.157 0.061 0.248 0.061 0.295 0 0.534-0.239 0.534-0.534 0-0.031-0.003-0.062-0.008-0.092l0 0.003-0.326-1.903 1.383-1.348c0.099-0.097 0.161-0.233 0.161-0.382 0-0.059-0.009-0.115-0.027-0.168l0.001 0.004zM29.514 5.852c-0.126 0.122-0.183 0.299-0.153 0.472l0.191 1.114-1-0.526c-0.072-0.039-0.158-0.062-0.249-0.062s-0.177 0.023-0.252 0.063l0.003-0.001-1 0.526 0.191-1.114c0.005-0.027 0.008-0.059 0.008-0.091 0-0.149-0.061-0.285-0.16-0.381l-0-0-0.811-0.79 1.119-0.162c0.174-0.025 0.324-0.134 0.402-0.292l0.5-1.013 0.5 1.013c0.078 0.158 0.228 0.267 0.402 0.292l1.119 0.162-0.809 0.79zM26.136 20.524h-1.067v1.067h1.067v-1.067zM26.136 22.658h-1.067v1.066h1.067v-1.066zM27.202 21.591h-1.067v1.067h1.067v-1.067zM25.069 21.591h-1.067v1.067h1.067v-1.067zM22.402 26.391h-1.067v1.067h1.067v-1.067zM22.402 28.525h-1.067v1.067h1.067v-1.067zM23.469 27.458h-1.067v1.067h1.067v-1.067zM21.335 27.458h-1.067v1.067h1.067v-1.067zM16.001 24.258h-1.067v1.067h1.067v-1.067zM16.001 26.391h-1.067v1.067h1.067v-1.067zM17.068 25.324h-1.067v1.067h1.067v-1.067zM14.935 25.324h-1.067v1.067h1.067v-1.067zM5.867 6.123h-1.067v1.067h1.067v-1.067zM5.867 8.256h-1.067v1.067h1.067v-1.066zM6.934 7.189h-1.067v1.067h1.067v-1.067zM4.8 7.189h-1.067v1.067h1.067v-1.067z"></path>
<path fill="#212121" style="fill: var(--color2, #212121)" d="M24.717 14.161c-0.28-0.376-0.699-0.636-1.179-0.703l-0.009-0.001c-0.076-0.012-0.164-0.018-0.254-0.018-0.411 0-0.789 0.139-1.090 0.373l0.004-0.003-1.253 0.96-1.898 1.417-1.358-0.541c2.421-1.086 4.114-3.508 4.114-6.321 0-3.823-3.123-6.934-6.962-6.934s-6.962 3.111-6.962 6.934c0 1.386 0.415 2.675 1.12 3.759l-2.769-0.024c-0.009 0-0.016 0.005-0.023 0.005-0.057 0.003-0.11 0.014-0.159 0.033l0.004-0.001c-0.013 0.005-0.026 0.007-0.038 0.013-0.006 0.003-0.013 0.003-0.019 0.006l-3.233 1.596c-0 0-0.001 0-0.001 0.001l-1.893 0.91c-0.024 0.011-0.045 0.023-0.065 0.036l0.001-0.001c-0.482 0.324-0.795 0.867-0.795 1.483 0 0.297 0.073 0.577 0.201 0.823l-0.005-0.010c0.22 0.424 0.593 0.742 1.044 0.885l0.013 0.003c0.161 0.053 0.345 0.083 0.537 0.083 0.308 0 0.598-0.078 0.851-0.216l-0.009 0.005 1.388-0.738 2.264-1.169 1.357-0.008-5.442 5.416c0 0.001-0.001 0.001-0.001 0.001l-1.339 1.333c-0.303 0.299-0.49 0.714-0.49 1.173 0 0.002 0 0.004 0 0.005v-0c0 0.444 0.174 0.863 0.49 1.179 0.301 0.3 0.717 0.486 1.176 0.486 0.001 0 0.002 0 0.004 0h-0c0.428 0 0.854-0.162 1.18-0.486l1.314-1.309 1.741-1.3 0.901 0.897-3.102 3.089c-0.303 0.299-0.491 0.714-0.491 1.174 0 0.001 0 0.003 0 0.004v-0c0 0.445 0.174 0.864 0.491 1.179 0.302 0.3 0.717 0.485 1.176 0.485 0.001 0 0.002 0 0.003 0h-0c0.427 0 0.855-0.162 1.18-0.485l4.489-4.473c0.007-0.006 0.016-0.009 0.022-0.016l5.166-5.659 3.471 0.494c0.025 0.004 0.050 0.006 0.075 0.006 0.065 0 0.127-0.016 0.187-0.038 0.018-0.006 0.033-0.015 0.050-0.023 0.019-0.010 0.039-0.015 0.058-0.027l3.214-2.133c0.012-0.008 0.018-0.021 0.029-0.030 0.013-0.010 0.029-0.014 0.041-0.026l1.271-1.191c0.348-0.326 0.564-0.787 0.564-1.3 0-0.4-0.132-0.769-0.355-1.067l0.003 0.005zM2.13 17.772c-0.098 0.054-0.215 0.086-0.34 0.086-0.078 0-0.153-0.013-0.224-0.036l0.005 0.001c-0.294-0.093-0.504-0.364-0.504-0.683 0-0.235 0.114-0.444 0.289-0.575l0.002-0.001 1.314-0.632 0.316 0.924 0.133 0.389-0.992 0.527zM5.628 15.944l-1.548 0.8-0.255-0.747-0.184-0.537 2.027-1.001-0.040 1.484zM20.729 9.323c0 0.918-0.219 1.785-0.599 2.56l-4.182-1.9c-0.044-0.575-0.342-1.072-0.782-1.384l-0.006-0.004 1.463-4.861c2.378 0.757 4.105 2.975 4.105 5.589zM8.939 9.323c0-3.235 2.644-5.867 5.895-5.867 0.253 0 0.5 0.022 0.745 0.053l-1.432 4.753c-0.019 0-0.037-0.006-0.057-0.006-0 0-0.001 0-0.001 0-1.032 0-1.869 0.835-1.872 1.867v0c0.003 1.032 0.84 1.867 1.872 1.867 0 0 0.001 0 0.001 0h-0c0.695 0 1.295-0.383 1.618-0.945l3.863 1.755c-1.075 1.447-2.795 2.39-4.737 2.39-3.251 0-5.895-2.632-5.895-5.867zM14.896 10.123c0 0.441-0.362 0.8-0.806 0.8-0 0-0.001 0-0.001 0-0.443 0-0.802-0.358-0.804-0.8v-0c0-0.441 0.361-0.8 0.806-0.8s0.806 0.359 0.806 0.8zM2.465 25.148c-0.11 0.109-0.261 0.176-0.428 0.176s-0.317-0.067-0.427-0.175l0 0c-0.109-0.108-0.176-0.257-0.176-0.422s0.067-0.314 0.176-0.422l0-0 0.962-0.959 0.852 0.848-0.959 0.955zM5.679 28.882c-0.11 0.109-0.261 0.176-0.428 0.176s-0.317-0.067-0.427-0.175l0 0c-0.109-0.108-0.176-0.257-0.176-0.422s0.067-0.315 0.176-0.422l0-0 0.963-0.959 0.852 0.848-0.96 0.956zM9.161 25.413l-0.001 0.001-1.765 1.76-0.852-0.848 1.765-1.757c0.040-0.040 0.065-0.088 0.090-0.136 0.007-0.014 0.020-0.026 0.026-0.040 0.016-0.041 0.019-0.085 0.026-0.128 0.003-0.025 0.014-0.048 0.014-0.073 0-0.035-0.013-0.070-0.020-0.105-0.006-0.032-0.006-0.064-0.019-0.096-0.025-0.053-0.055-0.098-0.092-0.138l0 0c-0.010-0.012-0.014-0.027-0.025-0.038h-0.001s0-0.001-0.001-0.002l-1.607-1.6c-0.017-0.017-0.039-0.024-0.058-0.038-0.025-0.021-0.054-0.040-0.084-0.056l-0.003-0.001c-0.027-0.012-0.058-0.023-0.090-0.031l-0.003-0.001c-0.030-0.009-0.065-0.017-0.101-0.020l-0.002-0c-0.007-0-0.015-0-0.023-0-0.026 0-0.051 0.002-0.075 0.005l0.003-0c-0.036 0.005-0.069 0.009-0.104 0.021s-0.064 0.027-0.095 0.045c-0.020 0.011-0.042 0.015-0.061 0.029l-1.773 1.324-0.901-0.897 2.399-2.386 4.362 4.289-0.928 0.919zM15.98 18.396c-0.015-0.002-0.030 0.004-0.045 0.003-0.008-0-0.017-0.001-0.027-0.001-0.031 0-0.062 0.003-0.092 0.008l0.003-0c-0.030 0.006-0.059 0.011-0.088 0.021-0.037 0.013-0.069 0.029-0.098 0.048l0.002-0.001c-0.031 0.019-0.059 0.039-0.084 0.062l0-0c-0.013 0.011-0.028 0.016-0.040 0.029l-4.698 5.146-4.329-4.257 2.833-2.819c0.096-0.097 0.156-0.23 0.156-0.377 0-0.295-0.239-0.534-0.534-0.534-0.001 0-0.001 0-0.002 0h0l-2.219 0.013 0.028-1.607 3.104 0.027c1.264 1.297 3.027 2.101 4.979 2.101 0.001 0 0.002 0 0.003 0h-0c0.438 0 0.864-0.046 1.28-0.123 0.040 0.032 0.080 0.064 0.129 0.085l2.41 0.96 0.152 0.758 0.178 0.886-3.003-0.427zM20.021 18.574l-0.313-1.558 1.447-1.080 0.946 1.257-2.080 1.382zM23.776 15.743l-0.838 0.785-0.931-1.236 0.831-0.637c0.155-0.119 0.351-0.168 0.543-0.143 0.193 0.027 0.364 0.128 0.48 0.284 0.088 0.117 0.141 0.265 0.141 0.426 0 0.206-0.087 0.391-0.226 0.521l-0 0z"></path>
<path fill="#212121" style="fill: var(--color2, #212121)" d="M13.604 18.546l-2.143-2.134c-0.096-0.096-0.229-0.155-0.376-0.155s-0.28 0.059-0.376 0.155l-2.143 2.134c-0.097 0.097-0.156 0.231-0.156 0.378s0.060 0.281 0.156 0.378l-0-0 2.142 2.134c0.096 0.096 0.229 0.156 0.377 0.156s0.28-0.059 0.377-0.156v0l2.143-2.134c0.097-0.097 0.157-0.23 0.157-0.378s-0.060-0.281-0.157-0.378l-0-0zM11.084 20.305l-1.387-1.381 1.387-1.381 1.388 1.381-1.388 1.381zM17.166 5.071l-0.258 1.036c0.071 0.018 1.738 0.452 1.738 2.149h1.067c0-2.017-1.666-2.965-2.547-3.185zM19.713 9.323h-1.067v1.067h1.067v-1.067z"></path>
</symbol>
<symbol id="icon-icon-brand-1" viewBox="0 0 28 32">
<path fill="currentColor" d="M4.087 0l4.773 4.518-8.859-0.005v21.921h23.155v-8.381l4.767 4.513v-22.565h-23.836zM22.946 17.522l-13.532-12.81h13.532v12.81zM18.745 23.227h-15.080v-14.742h1.066v13.744h14.014v0.998zM7.226 29.352l-0.557 1.148-0.557-1.148h-0.467l0.813 1.53v0.891h0.422v-0.891l0.811-1.53h-0.465zM7.926 31.774l0.196-0.564h0.938l0.197 0.564h0.439l-0.916-2.421h-0.378l-0.914 2.421h0.437zM8.591 29.867l0.351 1.004h-0.701l0.351-1.005zM10.809 30.813c-0.057 0.085-0.091 0.19-0.091 0.303 0 0.001 0 0.003 0 0.004v-0c0 0.204 0.072 0.37 0.215 0.497s0.336 0.19 0.575 0.19c0.239 0 0.445-0.065 0.618-0.195l0.136 0.161h0.469l-0.355-0.421c0.14-0.191 0.209-0.435 0.209-0.733h-0.351c0 0.163-0.034 0.311-0.101 0.444l-0.468-0.552 0.165-0.12c0.1-0.068 0.184-0.152 0.249-0.249l0.002-0.003c0.048-0.079 0.076-0.174 0.076-0.275 0-0.001 0-0.003-0-0.004v0c0-0.003 0-0.006 0-0.009 0-0.149-0.065-0.283-0.169-0.374l-0.001-0c-0.108-0.097-0.251-0.157-0.408-0.157-0.008 0-0.017 0-0.025 0l0.001-0c-0.195 0-0.35 0.056-0.465 0.166s-0.173 0.259-0.173 0.449c0 0.078 0.018 0.157 0.054 0.241 0.038 0.083 0.104 0.184 0.197 0.302-0.179 0.129-0.3 0.24-0.36 0.334zM11.902 31.348c-0.104 0.084-0.237 0.135-0.382 0.136h-0c-0.006 0-0.013 0-0.020 0-0.104 0-0.199-0.040-0.27-0.106l0 0c-0.067-0.066-0.109-0.158-0.109-0.259 0-0.005 0-0.009 0-0.014l-0 0.001c0-0.129 0.067-0.245 0.2-0.346l0.052-0.037 0.528 0.624zM11.468 30.275c-0.114-0.141-0.172-0.257-0.172-0.351 0-0.081 0.024-0.148 0.070-0.201 0.044-0.049 0.107-0.081 0.178-0.081 0.004 0 0.007 0 0.010 0l-0.001-0c0.003-0 0.006-0 0.009-0 0.067 0 0.127 0.026 0.173 0.068l-0-0c0.048 0.045 0.072 0.099 0.072 0.161 0 0.003 0 0.006 0 0.009 0 0.090-0.040 0.171-0.103 0.226l-0 0-0.052 0.041-0.185 0.127zM15.408 31.59c0.166-0.145 0.262-0.347 0.286-0.605h-0.419c-0.022 0.173-0.075 0.296-0.158 0.37s-0.208 0.112-0.373 0.112c-0.18 0-0.318-0.069-0.412-0.206s-0.14-0.337-0.14-0.599v-0.214c0.003-0.259 0.052-0.454 0.15-0.587 0.099-0.134 0.24-0.201 0.422-0.201 0.157 0 0.277 0.039 0.358 0.116s0.133 0.202 0.153 0.376h0.419c-0.027-0.265-0.121-0.47-0.285-0.615s-0.378-0.218-0.645-0.218c-0.198 0-0.373 0.048-0.525 0.142-0.152 0.097-0.271 0.234-0.345 0.396l-0.002 0.006c-0.077 0.169-0.122 0.367-0.122 0.576 0 0.010 0 0.020 0 0.030l-0-0.001v0.226c0.003 0.223 0.045 0.418 0.125 0.587s0.193 0.298 0.339 0.39c0.148 0.091 0.318 0.136 0.511 0.136 0.276 0 0.497-0.072 0.663-0.216zM17.88 31.251c0.082-0.18 0.123-0.388 0.123-0.625v-0.134c0-0.007 0-0.016 0-0.024 0-0.216-0.047-0.421-0.131-0.605l0.004 0.009c-0.077-0.171-0.199-0.31-0.35-0.406l-0.004-0.002c-0.152-0.095-0.326-0.143-0.524-0.143s-0.372 0.048-0.525 0.144c-0.152 0.095-0.27 0.233-0.354 0.414-0.079 0.175-0.125 0.38-0.125 0.595 0 0.011 0 0.021 0 0.032l-0-0.002v0.136c0.001 0.232 0.043 0.436 0.126 0.613 0.084 0.178 0.203 0.315 0.356 0.411 0.154 0.095 0.329 0.143 0.525 0.143 0.199 0 0.374-0.048 0.526-0.143 0.153-0.097 0.27-0.234 0.352-0.413zM17.43 29.882c0.102 0.143 0.153 0.349 0.153 0.618v0.126c0 0.272-0.050 0.48-0.151 0.622-0.099 0.142-0.242 0.213-0.429 0.213-0.005 0-0.011 0-0.017 0-0.171 0-0.323-0.086-0.413-0.217l-0.001-0.002c-0.104-0.145-0.155-0.351-0.155-0.617v-0.14c0.002-0.26 0.054-0.462 0.156-0.603 0.091-0.131 0.24-0.215 0.41-0.215 0.006 0 0.012 0 0.018 0l-0.001-0c0.187 0 0.33 0.072 0.431 0.215z"></path>
</symbol>
<symbol id="icon-icon-brand-2" viewBox="0 0 25 32">
<path fill="currentColor" d="M10.533 1.806h-0.084c-0.129-0.008-0.258-0.011-0.388-0.014h-0.28c-0.244 0-0.494 0.006-0.741 0.018-0.008-0.001-0.018-0.001-0.028-0.001s-0.020 0-0.029 0.001l0.001-0c-2.376 0.139-4.582 0.733-6.577 1.697l0.104-0.045-0.266 0.128v13.627l0.623-0.212c0.547-0.188 1.129-0.357 1.731-0.513 1.489-0.398 3.202-0.638 4.968-0.661l0.014-0v1.79c-0.223 0.001-0.439 0.007-0.655 0.018h-0.052c-1.399 0.079-2.71 0.289-3.972 0.619l0.139-0.031c-1.734 0.441-3.254 1.051-4.667 1.831l0.1-0.051v-17.477c1.38-0.82 2.975-1.488 4.665-1.921l0.127-0.028c1.353-0.364 2.908-0.576 4.511-0.582h0.267c0.315 0.008 0.622 0.022 0.91 0.044 0.83 0.060 1.597 0.187 2.34 0.379l-0.090-0.020v1.762c-0.628-0.154-1.373-0.271-2.135-0.326l-0.045-0.003-0.044-0.004c-0.152-0.013-0.304-0.026-0.446-0.026zM13.635 3.607c0.391 0.030 0.796 0.044 1.205 0.044 1.689-0.007 3.324-0.228 4.882-0.64l-0.135 0.030c1.734-0.443 3.253-1.052 4.665-1.832l-0.101 0.051v17.165c-1.38 0.819-2.975 1.487-4.665 1.921l-0.127 0.028c-1.353 0.363-2.908 0.574-4.511 0.581h-0.004c-0.033 0-0.072 0-0.111 0-1.177 0-2.319-0.147-3.41-0.425l0.095 0.021v-17.277c0.265 0.062 0.537 0.118 0.814 0.164 0.455 0.077 0.934 0.133 1.401 0.167zM22.371 3.741l-0.623 0.209c-0.572 0.193-1.151 0.365-1.731 0.518-1.551 0.415-3.332 0.657-5.169 0.663h-0.004c-0.406 0-0.78-0.011-1.141-0.034l-0.497-0.033v14.018l0.427 0.037c0.395 0.035 0.803 0.052 1.214 0.052 1.451-0.006 2.853-0.198 4.19-0.554l-0.116 0.026c1.221-0.31 2.281-0.702 3.285-1.189l-0.102 0.044 0.267-0.128v-13.631z"></path>
<path fill="currentColor" d="M1.685 25.98c-0.167-0.173-0.401-0.281-0.661-0.281-0.011 0-0.023 0-0.034 0.001l0.002-0c-0.004-0-0.009-0-0.014-0-0.139 0-0.272 0.028-0.393 0.078l0.007-0.003c-0.237 0.095-0.42 0.28-0.51 0.512l-0.002 0.006c-0.049 0.123-0.073 0.254-0.071 0.387v2.335c-0.006 0.164 0.026 0.328 0.092 0.479 0.055 0.12 0.135 0.227 0.234 0.313 0.093 0.078 0.203 0.135 0.32 0.166 0.114 0.031 0.231 0.048 0.349 0.048 0.13 0.001 0.258-0.026 0.377-0.081 0.351-0.156 0.591-0.501 0.591-0.902v-0.261h-0.611v0.208c0 0.004 0 0.009 0 0.014 0 0.070-0.013 0.136-0.037 0.198l0.001-0.004c-0.021 0.052-0.051 0.095-0.089 0.132l-0 0c-0.070 0.054-0.159 0.088-0.255 0.089h-0c-0.011 0.001-0.023 0.002-0.036 0.002-0.103 0-0.194-0.050-0.25-0.127l-0.001-0.001c-0.051-0.082-0.082-0.182-0.082-0.289 0-0.008 0-0.016 0.001-0.024l-0 0.001v-2.177c-0.004-0.121 0.022-0.24 0.075-0.349 0.056-0.087 0.153-0.143 0.262-0.143 0.013 0 0.025 0.001 0.038 0.002l-0.001-0c0.003-0 0.007-0 0.012-0 0.107 0 0.201 0.052 0.26 0.131l0.001 0.001c0.063 0.082 0.101 0.187 0.101 0.3 0 0.005-0 0.009-0 0.014v-0.001 0.202h0.604v-0.238c0-0.003 0-0.007 0-0.011 0-0.143-0.027-0.28-0.077-0.405l0.003 0.007c-0.048-0.128-0.117-0.237-0.205-0.329l0 0zM5.311 25.954c-0.186-0.158-0.429-0.255-0.694-0.257h-0c-0.124 0-0.248 0.023-0.364 0.066-0.252 0.090-0.451 0.276-0.557 0.512l-0.002 0.006c-0.062 0.142-0.092 0.297-0.089 0.452v2.239c-0.004 0.158 0.026 0.314 0.089 0.459 0.055 0.121 0.135 0.228 0.236 0.313 0.094 0.086 0.203 0.154 0.322 0.197 0.117 0.043 0.24 0.065 0.364 0.066 0.267-0.001 0.51-0.1 0.695-0.264l-0.001 0.001c0.097-0.087 0.176-0.194 0.23-0.313 0.063-0.144 0.093-0.301 0.089-0.459v-2.24c0-0.006 0-0.013 0-0.020 0-0.156-0.033-0.305-0.092-0.439l0.003 0.007c-0.057-0.128-0.135-0.237-0.23-0.327l-0-0zM5.026 28.972c0.001 0.010 0.002 0.023 0.002 0.035 0 0.114-0.047 0.216-0.123 0.289l-0 0c-0.077 0.065-0.178 0.105-0.287 0.105s-0.21-0.040-0.288-0.105l0.001 0.001c-0.076-0.073-0.123-0.176-0.123-0.289 0-0.012 0.001-0.025 0.002-0.037l-0 0.002v-2.24c-0.001-0.010-0.001-0.022-0.001-0.034 0-0.114 0.047-0.216 0.123-0.289l0-0c0.077-0.065 0.178-0.105 0.287-0.105s0.21 0.040 0.288 0.105l-0.001-0.001c0.076 0.073 0.123 0.175 0.123 0.289 0 0.012-0.001 0.025-0.002 0.037l0-0.002v2.24zM10.074 29.973v-4.241h-0.587l-0.771 2.245h-0.010l-0.777-2.244h-0.58v4.239h0.606v-2.579h0.011l0.593 1.823h0.302l0.598-1.823h0.010v2.579h0.606zM13.515 26.030c-0.093-0.105-0.211-0.185-0.342-0.232-0.124-0.042-0.267-0.066-0.416-0.066-0.008 0-0.016 0-0.024 0l0.001-0h-0.9v4.241h0.604v-1.656h0.311c0.189 0.009 0.376-0.031 0.545-0.116 0.139-0.078 0.251-0.188 0.329-0.32l0.002-0.004c0.070-0.113 0.117-0.238 0.138-0.369 0.021-0.133 0.033-0.287 0.033-0.444 0-0.013-0-0.027-0-0.040l0 0.002c0.006-0.203-0.014-0.407-0.059-0.606-0.043-0.153-0.12-0.284-0.223-0.39l0 0zM13.203 27.323c-0.003 0.081-0.023 0.157-0.057 0.224l0.001-0.003c-0.035 0.065-0.089 0.116-0.154 0.147l-0.002 0.001c-0.075 0.034-0.162 0.054-0.254 0.054-0.011 0-0.022-0-0.033-0.001l0.002 0h-0.276v-1.441h0.311c0.009-0 0.019-0.001 0.029-0.001 0.088 0 0.172 0.020 0.247 0.055l-0.004-0.002c0.062 0.036 0.111 0.090 0.141 0.154l0.001 0.002c0.033 0.074 0.051 0.155 0.053 0.236v0.282c0 0.098 0.006 0.201 0 0.291h-0.006zM16.377 25.732h-0.495l-0.934 4.241h0.604l0.177-0.911h0.823l0.178 0.911h0.604l-0.958-4.241zM15.819 28.484l0.297-1.537h0.011l0.295 1.537h-0.604zM20.28 28.286h-0.011l-0.912-2.554h-0.581v4.241h0.604v-2.55h0.012l0.923 2.549h0.568v-4.239h-0.604v2.554zM23.971 25.732l-0.486 1.686h-0.012l-0.486-1.686h-0.639l0.83 2.448v1.792h0.604v-1.792l0.83-2.448h-0.64zM0 31.17h0.291v0.817h0.198v-0.817h0.289v-0.167h-0.778v0.168zM2.448 31.002l-0.382 0.985h0.21l0.081-0.224h0.392l0.084 0.224h0.215l-0.391-0.985h-0.21zM2.417 31.597l0.134-0.365 0.134 0.365h-0.268zM4.867 31.623h0.228v0.127c-0.063 0.051-0.145 0.083-0.234 0.083h-0c-0.004 0-0.009 0-0.014 0-0.079 0-0.149-0.037-0.195-0.094l-0-0c-0.046-0.065-0.073-0.147-0.073-0.234 0-0.008 0-0.016 0.001-0.023l-0 0.001c0-0.219 0.095-0.329 0.283-0.329 0.006-0.001 0.014-0.001 0.021-0.001 0.097 0 0.178 0.067 0.201 0.157l0 0.001 0.194-0.038c-0.042-0.192-0.18-0.289-0.417-0.289-0.004-0-0.008-0-0.013-0-0.127 0-0.244 0.048-0.331 0.127l0-0c-0.088 0.087-0.143 0.208-0.143 0.342 0 0.013 0 0.026 0.002 0.038l-0-0.002c-0 0.007-0 0.015-0 0.023 0 0.132 0.048 0.254 0.127 0.347l-0.001-0.001c0.087 0.090 0.209 0.146 0.343 0.146 0.011 0 0.021-0 0.032-0.001l-0.001 0c0.005 0 0.010 0 0.016 0 0.155 0 0.296-0.060 0.402-0.157l-0 0v-0.388h-0.426v0.166zM7.339 31.002h-0.199v0.985h0.689v-0.167h-0.49v-0.817zM9.428 31.002h-0.199v0.985h0.199v-0.985zM11.471 31.659l-0.404-0.657h-0.193v0.985h0.185v-0.643l0.396 0.643h0.198v-0.985h-0.182v0.658zM13.317 31.553h0.491v-0.167h-0.491v-0.215h0.527v-0.168h-0.727v0.985h0.747v-0.167h-0.548v-0.267zM17.795 31.39h-0.388v-0.388h-0.197v0.984h0.197v-0.431h0.388v0.431h0.198v-0.985h-0.198v0.388zM19.652 31.553h0.492v-0.167h-0.492v-0.215h0.529v-0.168h-0.726v0.985h0.746v-0.167h-0.548v-0.267zM22.171 31.553c0.171-0.027 0.259-0.118 0.259-0.274 0.001-0.008 0.002-0.018 0.002-0.028 0-0.079-0.038-0.148-0.098-0.191l-0.001-0c-0.073-0.037-0.159-0.059-0.25-0.059-0.014 0-0.027 0-0.040 0.001l0.002-0h-0.417v0.984h0.198v-0.412h0.039c0.005-0 0.010-0 0.016-0 0.039 0 0.076 0.008 0.109 0.023l-0.002-0.001c0.029 0.018 0.053 0.042 0.070 0.072l0.215 0.313h0.236l-0.12-0.192c-0.054-0.096-0.128-0.175-0.215-0.235l-0.002-0.002zM21.972 31.417h-0.146v-0.247h0.156c0.012-0.001 0.027-0.002 0.042-0.002 0.057 0 0.112 0.009 0.163 0.026l-0.004-0.001c0.026 0.024 0.043 0.058 0.043 0.096 0 0.042-0.020 0.080-0.052 0.104l-0 0c-0.049 0.016-0.106 0.025-0.164 0.025-0.013 0-0.026-0-0.039-0.001l0.002 0zM24.071 31.553h0.49v-0.167h-0.49v-0.215h0.529v-0.168h-0.729v0.985h0.747v-0.167h-0.548v-0.267z"></path>
</symbol>
<symbol id="icon-icon-brand-3" viewBox="0 0 34 32">
<path fill="currentColor" d="M5.643 31.315c0.012 0 0.024 0.003 0.035 0.008s0.021 0.011 0.030 0.018l-0-0 0.166 0.158c-0.13 0.129-0.289 0.232-0.468 0.302-0.184 0.069-0.397 0.109-0.62 0.109-0.015 0-0.030-0-0.045-0.001l0.002 0c-0.213 0.004-0.425-0.030-0.622-0.101-0.182-0.066-0.338-0.163-0.47-0.286l0.001 0.001c-0.128-0.121-0.231-0.268-0.3-0.432l-0.003-0.008c-0.068-0.163-0.107-0.352-0.107-0.55 0-0.006 0-0.011 0-0.017v0.001c-0-0.009-0-0.019-0-0.029 0-0.388 0.168-0.737 0.436-0.977l0.001-0.001c0.142-0.124 0.312-0.222 0.498-0.287 0.205-0.069 0.423-0.103 0.642-0.101 0.012-0 0.026-0 0.040-0 0.199 0 0.39 0.034 0.568 0.096l-0.012-0.004c0.165 0.062 0.316 0.149 0.447 0.255l-0.139 0.169c-0.010 0.012-0.021 0.022-0.034 0.030l-0.001 0c-0.014 0.008-0.031 0.013-0.048 0.013-0.003 0-0.006-0-0.008-0l0 0c-0.023-0.001-0.043-0.007-0.062-0.018l0.001 0-0.074-0.046-0.104-0.058c-0.095-0.046-0.205-0.081-0.321-0.1l-0.007-0.001c-0.069-0.012-0.149-0.018-0.23-0.018-0.006 0-0.013 0-0.019 0h0.001c-0.005-0-0.010-0-0.015-0-0.16 0-0.313 0.028-0.455 0.079l0.009-0.003c-0.14 0.049-0.26 0.122-0.363 0.214l0.001-0.001c-0.103 0.098-0.183 0.213-0.235 0.339-0.054 0.128-0.085 0.276-0.085 0.432 0 0.006 0 0.011 0 0.017v-0.001c-0 0.006-0 0.012-0 0.019 0 0.157 0.031 0.307 0.088 0.444l-0.003-0.008c0.051 0.125 0.13 0.239 0.231 0.338 0.095 0.091 0.213 0.164 0.345 0.21 0.136 0.049 0.281 0.073 0.427 0.072 0.085 0.001 0.17-0.004 0.254-0.014 0.211-0.022 0.4-0.106 0.55-0.234l-0.001 0.001c0.021-0.017 0.049-0.028 0.078-0.029h0zM10.441 30.517c0 0.005 0 0.011 0 0.017 0 0.197-0.041 0.384-0.116 0.553l0.003-0.009c-0.074 0.172-0.18 0.317-0.311 0.435l-0.001 0.001c-0.138 0.123-0.302 0.22-0.481 0.283l-0.010 0.003c-0.189 0.064-0.406 0.101-0.632 0.101s-0.443-0.037-0.646-0.105l0.014 0.004c-0.188-0.067-0.351-0.165-0.489-0.288l0.001 0.001c-0.133-0.12-0.24-0.267-0.313-0.432l-0.003-0.008c-0.071-0.166-0.112-0.359-0.112-0.562s0.041-0.396 0.116-0.572l-0.004 0.010c0.071-0.165 0.178-0.315 0.316-0.442 0.139-0.121 0.305-0.215 0.488-0.277 0.188-0.065 0.406-0.103 0.632-0.103s0.443 0.038 0.646 0.107l-0.014-0.004c0.184 0.065 0.351 0.162 0.49 0.286 0.137 0.126 0.244 0.274 0.314 0.435 0.077 0.181 0.115 0.373 0.112 0.565zM10.005 30.517c0-0.007 0-0.015 0-0.024 0-0.154-0.029-0.301-0.082-0.436l0.003 0.008c-0.101-0.26-0.308-0.459-0.566-0.548l-0.007-0.002c-0.137-0.047-0.295-0.074-0.459-0.074s-0.322 0.027-0.469 0.077l0.010-0.003c-0.136 0.049-0.254 0.121-0.352 0.214l0.001-0c-0.097 0.092-0.173 0.205-0.222 0.331l-0.002 0.006c-0.050 0.134-0.079 0.289-0.079 0.451s0.029 0.317 0.082 0.46l-0.003-0.009c0.101 0.26 0.309 0.46 0.569 0.547l0.007 0.002c0.296 0.097 0.622 0.097 0.918 0 0.133-0.046 0.254-0.119 0.35-0.211 0.1-0.098 0.175-0.213 0.222-0.338 0.056-0.145 0.082-0.298 0.079-0.451zM13.715 30.99l0.044 0.101c0.016-0.036 0.030-0.069 0.047-0.101 0.016-0.034 0.034-0.067 0.054-0.099l1.061-1.677c0.021-0.029 0.040-0.047 0.061-0.053s0.047-0.009 0.073-0.009c0.005 0 0.010 0 0.015 0l-0.001-0h0.314v2.728h-0.372v-2.090c-0.001-0.014-0.002-0.031-0.002-0.047s0.001-0.033 0.002-0.049l-0 0.002-1.069 1.701c-0.015 0.026-0.036 0.047-0.062 0.061l-0.001 0c-0.026 0.014-0.057 0.023-0.090 0.023-0.001 0-0.001 0-0.002 0h-0.060c-0.001 0-0.001 0-0.002 0-0.033 0-0.064-0.008-0.090-0.023l0.001 0c-0.026-0.014-0.047-0.035-0.061-0.061l-0-0.001-1.099-1.711v2.19h-0.359v-2.722h0.313c0.004-0 0.009-0 0.015-0 0.026 0 0.051 0.003 0.075 0.010l-0.002-0c0.026 0.011 0.046 0.030 0.058 0.053l1.084 1.678c0.021 0.030 0.040 0.063 0.054 0.098zM17.71 30.855v1.021h-0.414v-2.723h0.926c0.175-0.003 0.35 0.018 0.517 0.059 0.134 0.034 0.259 0.091 0.366 0.17 0.089 0.070 0.159 0.16 0.205 0.262l0.002 0.004c0.050 0.111 0.073 0.23 0.071 0.349 0 0.005 0 0.011 0 0.018 0 0.246-0.117 0.464-0.299 0.602l-0.002 0.001c-0.107 0.082-0.232 0.143-0.368 0.18-0.14 0.040-0.302 0.064-0.468 0.064-0.011 0-0.023-0-0.034-0l-0.501-0.008zM17.71 30.562h0.503c0.109 0.002 0.218-0.013 0.322-0.041 0.089-0.026 0.166-0.066 0.234-0.119l-0.002 0.001c0.117-0.097 0.191-0.242 0.191-0.404 0-0.002 0-0.004-0-0.006v0c0.001-0.009 0.001-0.019 0.001-0.029 0-0.070-0.015-0.136-0.043-0.195l0.001 0.003c-0.035-0.074-0.084-0.136-0.144-0.185l-0.001-0.001c-0.139-0.093-0.31-0.149-0.493-0.149-0.023 0-0.046 0.001-0.069 0.003l0.003-0h-0.503v1.122zM23.294 31.88h-0.328c-0.002 0-0.004 0-0.006 0-0.032 0-0.061-0.009-0.086-0.026l0.001 0c-0.023-0.016-0.042-0.038-0.054-0.062l-0-0.001-0.282-0.658h-1.419l-0.293 0.658c-0.026 0.053-0.079 0.088-0.14 0.088-0.002 0-0.003-0-0.005-0h-0.329l1.246-2.728h0.432l1.263 2.728zM21.237 30.867h1.173l-0.495-1.109c-0.037-0.084-0.069-0.17-0.093-0.257l-0.048 0.142c-0.014 0.043-0.030 0.084-0.046 0.116l-0.49 1.108zM25.089 29.166c0.024 0.011 0.046 0.028 0.062 0.048l1.817 2.056v-2.117h0.372v2.728h-0.207c-0.001 0-0.003 0-0.005 0-0.029 0-0.057-0.006-0.082-0.017l0.001 0c-0.026-0.013-0.048-0.030-0.066-0.050l-0-0-1.816-2.054c0.001 0.014 0.001 0.030 0.001 0.047s-0.001 0.033-0.002 0.049l0-0.002v2.027h-0.372v-2.727h0.22c0.025 0 0.051 0.004 0.075 0.013zM30.402 30.795v1.083h-0.415v-1.082l-1.149-1.643h0.372c0.003-0 0.006-0 0.009-0 0.030 0 0.057 0.009 0.081 0.023l-0.001-0c0.022 0.017 0.041 0.038 0.056 0.061l0.001 0.001 0.718 1.060c0.049 0.070 0.092 0.15 0.124 0.235l0.002 0.007 0.055-0.117c0.020-0.043 0.043-0.085 0.070-0.125l0.709-1.067c0.015-0.022 0.033-0.041 0.053-0.058l0-0c0.023-0.017 0.051-0.027 0.082-0.027 0.003 0 0.006 0 0.008 0l-0-0h0.376l-1.15 1.65zM13.509 24.576c0.181 0.020 0.364 0.036 0.549 0.050 2.804-1.090 5.174-2.872 6.818-5.126s2.485-4.878 2.421-7.546l-3.089-2.683c0.628 2.84 0.334 5.775-0.849 8.478s-3.208 5.067-5.849 6.827z"></path>
<path fill="currentColor" d="M12.407 24.451l0.083 0.015c2.822-1.755 4.973-4.203 6.176-7.031s1.402-5.904 0.571-8.83l-4.4-3.822c1.779 3.142 2.496 6.659 2.065 10.141-0.43 3.482-1.989 6.786-4.495 9.528zM27.328 15.106c-0.747 2.93-2.563 5.573-5.176 7.537-0.714 0.544-1.52 1.053-2.368 1.491l-0.092 0.043c2.129-0.544 4.085-1.505 5.718-2.809s2.901-2.917 3.703-4.714l-1.784-1.548z"></path>
<path fill="currentColor" d="M26.628 14.674l-2.54-2.207c-0.049 2.517-0.872 4.976-2.385 7.123s-3.66 3.901-6.217 5.083h0.012c0.57 0 1.139-0.030 1.705-0.088 2.39-0.848 4.502-2.197 6.146-3.926s2.771-3.785 3.278-5.985zM12.774 3.17l-3.031-2.637c-2.709 0.91-5.039 2.509-6.686 4.588s-2.531 4.542-2.539 7.066c0.010 2.789 1.090 5.495 3.070 7.69 1.979 2.195 4.744 3.754 7.858 4.43 2.78-2.942 4.408-6.578 4.646-10.379s-0.924-7.57-3.319-10.757zM33.63 14.268c-0.011-3.308-1.528-6.478-4.221-8.818s-6.342-3.657-10.15-3.667c-0.009-0-0.020-0-0.030-0-1.83 0-3.589 0.305-5.228 0.866l0.114-0.034 18.556 16.122c0.605-1.313 0.958-2.849 0.96-4.468v-0.001z"></path>
</symbol>
<symbol id="icon-icon-brand-4" viewBox="0 0 65 32">
<path fill="currentColor" d="M10.017 9.983h-0.002c-1.827 0-3.308 1.317-3.308 2.94v0.002c0 1.624 1.481 2.94 3.308 2.94h0.002c1.827 0 3.308-1.317 3.308-2.94v-0.002c0-1.624-1.481-2.941-3.308-2.941zM34.437 9.043c-0.005-2.255-1.016-4.418-2.81-6.013s-4.227-2.493-6.764-2.498c-2.539 0.004-4.973 0.902-6.768 2.497s-2.806 3.757-2.812 6.013v12.438s19.151-1.896 19.153-12.435v-0.002zM0 25.563c0.005 1.57 0.709 3.073 1.957 4.183s2.94 1.735 4.706 1.74c1.765-0.005 3.457-0.63 4.706-1.74s1.952-2.613 1.957-4.182v-8.654s-13.325 1.32-13.325 8.653zM6.663 27.113c-0.345 0-0.682-0.091-0.969-0.261-0.279-0.164-0.5-0.402-0.638-0.687l-0.004-0.010c-0.084-0.174-0.132-0.377-0.132-0.592 0-0.107 0.012-0.212 0.035-0.312l-0.002 0.009c0.067-0.301 0.233-0.578 0.477-0.794 0.243-0.214 0.547-0.364 0.882-0.423l0.011-0.002c0.102-0.019 0.22-0.030 0.34-0.030 0.24 0 0.47 0.043 0.682 0.123l-0.013-0.004c0.319 0.117 0.592 0.315 0.783 0.571s0.294 0.555 0.294 0.861c0 0.001 0 0.003 0 0.004 0 0.215-0.048 0.418-0.135 0.6l0.004-0.009c-0.094 0.198-0.221 0.366-0.376 0.503l-0.002 0.001c-0.162 0.145-0.354 0.259-0.567 0.338-0.198 0.075-0.427 0.118-0.666 0.118-0.001 0-0.002 0-0.003 0h0v-0.006zM20.129 26.259h-1.286v1.328h-0.67v-3.251h2.117v0.543h-1.447v0.84h1.286v0.54zM23.348 26.036c0 0.32-0.056 0.6-0.169 0.841s-0.276 0.427-0.488 0.559c-0.199 0.124-0.44 0.197-0.698 0.197-0.008 0-0.017-0-0.025-0l0.001 0c-0.27 0-0.511-0.065-0.722-0.194-0.213-0.134-0.382-0.322-0.487-0.546l-0.003-0.008c-0.112-0.236-0.177-0.512-0.177-0.803 0-0.009 0-0.019 0-0.029l-0 0.001v-0.16c0-0.32 0.058-0.602 0.172-0.844 0.116-0.244 0.279-0.431 0.489-0.56 0.211-0.131 0.452-0.197 0.723-0.197s0.511 0.066 0.721 0.197c0.211 0.13 0.374 0.316 0.489 0.56 0.116 0.242 0.174 0.523 0.174 0.841v0.145zM22.67 25.888c0-0.341-0.061-0.6-0.183-0.777-0.108-0.161-0.29-0.266-0.496-0.266-0.009 0-0.018 0-0.028 0.001l0.001-0c-0.008-0-0.016-0.001-0.025-0.001-0.205 0-0.387 0.104-0.494 0.262l-0.001 0.002c-0.122 0.174-0.184 0.43-0.185 0.768v0.159c0 0.331 0.061 0.589 0.183 0.773s0.297 0.274 0.527 0.274c0.008 0 0.017 0.001 0.026 0.001 0.205 0 0.385-0.104 0.491-0.262l0.001-0.002c0.12-0.177 0.181-0.434 0.183-0.773v-0.159zM25.52 26.734c0-0.006 0.001-0.012 0.001-0.019 0-0.11-0.052-0.208-0.133-0.27l-0.001-0.001c-0.089-0.069-0.25-0.14-0.482-0.214-0.214-0.067-0.396-0.142-0.57-0.232l0.019 0.009c-0.37-0.2-0.554-0.468-0.554-0.806 0-0.175 0.049-0.331 0.147-0.469 0.1-0.139 0.242-0.246 0.427-0.324 0.186-0.077 0.395-0.116 0.625-0.116 0.232 0 0.439 0.042 0.621 0.127 0.181 0.084 0.322 0.201 0.421 0.355 0.101 0.152 0.152 0.328 0.152 0.522h-0.671c0-0.149-0.046-0.264-0.14-0.346-0.094-0.084-0.226-0.125-0.395-0.125-0.164 0-0.291 0.035-0.382 0.105-0.083 0.060-0.136 0.156-0.136 0.265 0 0.003 0 0.005 0 0.008v-0c0 0.106 0.053 0.194 0.159 0.266 0.136 0.083 0.292 0.152 0.458 0.197l0.013 0.003c0.381 0.114 0.658 0.257 0.833 0.427s0.261 0.381 0.261 0.634c0 0.282-0.107 0.503-0.32 0.663s-0.498 0.239-0.859 0.239c-0.25 0-0.478-0.046-0.683-0.137-0.193-0.082-0.352-0.211-0.469-0.373l-0.002-0.003c-0.1-0.15-0.16-0.335-0.16-0.533 0-0.007 0-0.014 0-0.022l-0 0.001h0.671c0 0.358 0.214 0.538 0.643 0.538 0.159 0 0.283-0.032 0.373-0.096 0.081-0.059 0.134-0.153 0.134-0.26 0-0.004-0-0.009-0-0.013l0 0.001zM29.094 24.879h-0.995v2.708h-0.671v-2.708h-0.981v-0.543h2.647v0.543zM31.433 26.178h-1.285v0.871h1.509v0.538h-2.178v-3.251h2.175v0.543h-1.505v0.775h1.286v0.524zM33.253 26.397h-0.533v1.19h-0.67v-3.251h1.208c0.384 0 0.68 0.086 0.888 0.257s0.312 0.413 0.312 0.725c0 0.222-0.048 0.408-0.145 0.556-0.108 0.156-0.255 0.278-0.429 0.35l-0.006 0.002 0.703 1.328v0.031h-0.719l-0.61-1.19zM32.719 25.854h0.541c0.168 0 0.297-0.042 0.39-0.127 0.086-0.084 0.139-0.201 0.139-0.33 0-0.009-0-0.017-0.001-0.026l0 0.001c0-0.154-0.043-0.274-0.131-0.362s-0.219-0.132-0.4-0.132h-0.538v0.975zM36.778 26.442v1.145h-0.67v-3.251h1.268c0.244 0 0.459 0.045 0.643 0.134 0.186 0.089 0.329 0.216 0.429 0.382 0.099 0.164 0.149 0.351 0.149 0.56 0 0.319-0.11 0.57-0.328 0.754-0.218 0.183-0.519 0.275-0.904 0.275h-0.587zM36.778 25.899h0.598c0.178 0 0.312-0.042 0.404-0.125 0.094-0.084 0.141-0.203 0.141-0.357 0-0.007 0.001-0.016 0.001-0.024 0-0.14-0.053-0.267-0.141-0.363l0 0c-0.094-0.098-0.223-0.149-0.389-0.152h-0.614v1.021zM41.014 26.178h-1.285v0.871h1.509v0.538h-2.178v-3.251h2.175v0.543h-1.505v0.775h1.286v0.524zM44.122 24.879h-0.996v2.708h-0.67v-2.708h-0.982v-0.543h2.648v0.543zM46.461 26.178h-1.285v0.871h1.509v0.538h-2.179v-3.251h2.175v0.543h-1.504v0.775h1.285v0.524zM48.281 26.397h-0.533v1.19h-0.671v-3.251h1.208c0.384 0 0.68 0.086 0.888 0.257s0.312 0.413 0.312 0.725c0 0.222-0.049 0.408-0.145 0.556-0.108 0.156-0.256 0.278-0.429 0.35l-0.006 0.002 0.703 1.328v0.031h-0.719l-0.61-1.19zM47.748 25.854h0.54c0.168 0 0.298-0.042 0.39-0.127 0.086-0.084 0.139-0.201 0.139-0.331 0-0.009-0-0.017-0.001-0.025l0 0.001c0-0.154-0.043-0.274-0.132-0.362-0.086-0.088-0.219-0.132-0.399-0.132h-0.538v0.975zM51.683 26.735c0-0.006 0.001-0.012 0.001-0.019 0-0.11-0.052-0.208-0.134-0.271l-0.001-0.001c-0.089-0.069-0.25-0.14-0.482-0.214-0.214-0.067-0.396-0.142-0.57-0.232l0.019 0.009c-0.37-0.2-0.554-0.468-0.554-0.806 0-0.175 0.050-0.331 0.147-0.469 0.1-0.139 0.242-0.246 0.427-0.324 0.186-0.077 0.395-0.116 0.625-0.116 0.232 0 0.439 0.042 0.621 0.127 0.181 0.084 0.322 0.201 0.421 0.355 0.101 0.152 0.152 0.328 0.152 0.522h-0.671c0-0.149-0.046-0.264-0.14-0.346-0.094-0.084-0.226-0.125-0.395-0.125-0.164 0-0.291 0.035-0.382 0.105-0.083 0.060-0.137 0.156-0.137 0.265 0 0.002 0 0.005 0 0.007v-0c0 0.106 0.053 0.194 0.159 0.266s0.264 0.138 0.471 0.2c0.381 0.114 0.658 0.257 0.833 0.427s0.261 0.381 0.261 0.634c0 0.282-0.107 0.503-0.32 0.663s-0.499 0.239-0.859 0.239c-0.25 0-0.478-0.046-0.683-0.137-0.193-0.082-0.352-0.211-0.469-0.373l-0.002-0.003c-0.1-0.15-0.16-0.335-0.16-0.533 0-0.007 0-0.014 0-0.022l-0 0.001h0.671c0 0.358 0.214 0.538 0.643 0.538 0.159 0 0.283-0.032 0.373-0.096 0.082-0.059 0.134-0.153 0.134-0.26 0-0.004-0-0.008-0-0.012l0 0.001z"></path>
</symbol>
<symbol id="icon-icon-brand-5" viewBox="0 0 43 32">
<path fill="currentColor" d="M3.239 26.377c0.166 0.188 0.254 0.424 0.25 0.665 0.001 0.015 0.001 0.033 0.001 0.050 0 0.149-0.033 0.29-0.093 0.416l0.003-0.006c-0.072 0.152-0.172 0.279-0.296 0.378l-0.002 0.002c-0.282 0.194-0.631 0.31-1.007 0.31-0.041 0-0.082-0.001-0.123-0.004l0.006 0h-1.977v-4.214h1.936c0.034-0.002 0.074-0.004 0.115-0.004 0.356 0 0.688 0.106 0.965 0.287l-0.007-0.004c0.125 0.097 0.225 0.218 0.289 0.354s0.095 0.286 0.086 0.436c0.011 0.232-0.068 0.46-0.225 0.644-0.15 0.168-0.358 0.283-0.59 0.33 0.262 0.044 0.499 0.172 0.667 0.361zM0.92 25.741h0.828c0.188 0.012 0.374-0.037 0.526-0.14 0.060-0.050 0.108-0.113 0.14-0.184l0.001-0.003c0.024-0.054 0.038-0.118 0.038-0.185 0-0.014-0.001-0.028-0.002-0.042l0 0.002c0.001-0.011 0.001-0.023 0.001-0.036 0-0.068-0.014-0.133-0.040-0.192l0.001 0.003c-0.033-0.075-0.079-0.137-0.138-0.187l-0.001-0.001c-0.134-0.091-0.298-0.145-0.476-0.145-0.023 0-0.046 0.001-0.069 0.003l0.003-0h-0.815v1.106zM2.355 27.357c0.065-0.051 0.116-0.116 0.151-0.19l0.001-0.003c0.028-0.059 0.044-0.128 0.044-0.202 0-0.012-0-0.023-0.001-0.035l0 0.002c0.001-0.009 0.001-0.020 0.001-0.031 0-0.075-0.017-0.147-0.047-0.211l0.001 0.003c-0.037-0.078-0.090-0.143-0.154-0.193l-0.001-0.001c-0.142-0.097-0.318-0.154-0.507-0.154-0.019 0-0.039 0.001-0.058 0.002l0.003-0h-0.868v1.16h0.88c0.197 0.010 0.394-0.041 0.556-0.146zM7.197 28.189l-1.076-1.648h-0.405v1.648h-0.927v-4.216h1.755c0.037-0.003 0.081-0.004 0.124-0.004 0.413 0 0.794 0.136 1.101 0.366l-0.005-0.003c0.245 0.229 0.394 0.53 0.417 0.85s-0.078 0.637-0.287 0.895c-0.218 0.224-0.506 0.378-0.829 0.427l-0.008 0.001 1.147 1.684h-1.008zM5.715 25.967h0.758c0.526 0 0.79-0.212 0.79-0.638 0.001-0.010 0.001-0.022 0.001-0.034 0-0.080-0.016-0.156-0.045-0.225l0.001 0.004c-0.036-0.086-0.087-0.159-0.15-0.218l-0-0c-0.144-0.109-0.326-0.174-0.523-0.174-0.026 0-0.051 0.001-0.077 0.003l0.003-0h-0.767l0.009 1.283zM12.262 27.34h-1.846l-0.326 0.849h-0.972l1.695-4.168h1.051l1.689 4.168h-0.971l-0.319-0.848zM12.015 26.702l-0.675-1.779-0.675 1.779h1.349zM18.602 28.189h-0.919l-2.063-2.866v2.866h-0.918v-4.216h0.918l2.063 2.883v-2.883h0.919v4.216zM23.852 27.18c-0.191 0.318-0.48 0.577-0.833 0.744-0.358 0.168-0.777 0.267-1.218 0.267-0.026 0-0.053-0-0.079-0.001l0.004 0h-1.637v-4.216h1.637c0.022-0.001 0.048-0.001 0.074-0.001 0.442 0 0.861 0.096 1.238 0.269l-0.019-0.008c0.352 0.162 0.642 0.419 0.832 0.735 0.189 0.342 0.288 0.722 0.288 1.106s-0.099 0.763-0.288 1.106zM22.8 27.080c0.262-0.28 0.406-0.637 0.406-1.006-0.003-0.39-0.157-0.744-0.407-1.006l0.001 0.001c-0.285-0.226-0.65-0.362-1.047-0.362-0.037 0-0.074 0.001-0.11 0.003l0.005-0h-0.639v2.729h0.639c0.032 0.002 0.069 0.003 0.106 0.003 0.396 0 0.761-0.136 1.049-0.364l-0.004 0.003zM12.838 0.526s11.873 4.104 11.621 10.043v10.046s-11.864-4.106-11.617-10.045l-0.004-10.043zM35.037 18.263c2.243-1.413 4.836-2.288 7.544-2.546v-3.144c-3.12 1.101-5.767 3.097-7.544 5.69z"></path>
<path fill="currentColor" d="M33.69 19.211c1.835-3.384 5.017-5.996 8.891-7.297v-9.061s-16.909 5.846-16.552 14.304v14.302s0.754-0.261 1.939-0.752c0-0.457 0-0.918 0.054-1.382 0.349-3.926 2.388-7.564 5.667-10.115z"></path>
<path fill="currentColor" d="M32.082 24.524c0.099-1.081 0.309-2.076 0.619-3.025l-0.027 0.097c-2.043 2.203-3.279 4.936-3.536 7.816-0.025 0.272-0.039 0.543-0.045 0.824 1.41-0.617 2.478-1.142 3.524-1.703l-0.272 0.133c-0.3-1.362-0.388-2.757-0.263-4.142zM32.754 24.576c-0.033 0.348-0.052 0.752-0.052 1.161 0 0.917 0.095 1.811 0.276 2.674l-0.015-0.084c4.62-2.531 9.811-6.442 9.61-11.168v-0.412c-3.301 0.338-6.388 1.659-8.79 3.76-0.53 1.19-0.895 2.571-1.026 4.019l-0.004 0.051z"></path>
</symbol>
<symbol id="icon-icon-brand-6" viewBox="0 0 67 32">
<path fill="currentColor" d="M33.727 15.223c-0.271-0.35-0.435-0.795-0.435-1.278 0-0.048 0.002-0.095 0.005-0.142l-0 0.006v-2.051c0-0.628 0.142-1.106 0.428-1.433 0.284-0.327 0.774-0.489 1.469-0.488 0.652 0 1.116 0.139 1.389 0.417 0.299 0.355 0.444 0.789 0.411 1.226v0.482h-1.166v-0.489c0.004-0.159-0.007-0.319-0.034-0.477-0.020-0.116-0.081-0.214-0.166-0.283l-0.001-0.001c-0.105-0.070-0.234-0.112-0.373-0.112-0.018 0-0.035 0.001-0.052 0.002l0.002-0c-0.015-0.001-0.033-0.002-0.050-0.002-0.147 0-0.283 0.044-0.397 0.12l0.003-0.002c-0.096 0.077-0.166 0.186-0.193 0.309l-0.001 0.004c-0.030 0.141-0.047 0.302-0.047 0.467 0 0.014 0 0.028 0 0.042l-0-0.002v2.488c-0.019 0.24 0.033 0.48 0.149 0.698 0.061 0.075 0.139 0.133 0.23 0.168l0.004 0.001c0.068 0.027 0.148 0.043 0.231 0.043 0.025 0 0.050-0.001 0.074-0.004l-0.003 0c0.015 0.001 0.032 0.002 0.049 0.002 0.136 0 0.262-0.043 0.365-0.116l-0.002 0.001c0.090-0.075 0.153-0.18 0.174-0.299l0-0.003c0.027-0.165 0.040-0.332 0.036-0.499v-0.505h1.167v0.461c0.003 0.036 0.004 0.079 0.004 0.122 0 0.443-0.153 0.85-0.41 1.171l0.003-0.004c-0.268 0.304-0.725 0.457-1.397 0.457s-1.179-0.163-1.466-0.501zM38.585 15.245c-0.295-0.32-0.442-0.784-0.442-1.4v-2.157c0-0.609 0.147-1.070 0.442-1.383s0.787-0.469 1.478-0.467c0.686 0 1.176 0.156 1.471 0.467 0.294 0.313 0.444 0.774 0.444 1.383v2.156c0 0.609-0.149 1.077-0.449 1.398s-0.787 0.481-1.466 0.481-1.181-0.163-1.479-0.479zM40.607 14.727c0.106-0.199 0.154-0.419 0.14-0.638v-2.641c0.001-0.021 0.002-0.046 0.002-0.071 0-0.203-0.052-0.394-0.142-0.561l0.003 0.006c-0.062-0.076-0.142-0.135-0.234-0.17l-0.004-0.001c-0.068-0.027-0.146-0.042-0.229-0.042-0.028 0-0.056 0.002-0.083 0.005l0.003-0c-0.024-0.003-0.051-0.005-0.079-0.005-0.083 0-0.162 0.015-0.234 0.043l0.004-0.002c-0.096 0.036-0.177 0.096-0.239 0.171l-0.001 0.001c-0.107 0.195-0.154 0.41-0.14 0.626v2.653c-0.014 0.22 0.033 0.439 0.14 0.639 0.068 0.067 0.152 0.121 0.246 0.158 0.089 0.036 0.192 0.056 0.3 0.056s0.211-0.021 0.305-0.058l-0.006 0.002c0.095-0.037 0.178-0.091 0.246-0.158v-0.013zM43.383 9.901h1.256l0.944 3.979 0.967-3.979h1.222l0.124 5.743h-0.904l-0.097-3.992-0.932 3.992h-0.725l-0.966-4.007-0.090 4.007h-0.913l0.114-5.743zM49.305 9.901h1.957c1.127 0 1.691 0.543 1.691 1.631 0 1.041-0.594 1.562-1.781 1.56h-0.666v2.552h-1.208l0.007-5.744zM50.977 12.355c0.119 0.014 0.24 0.004 0.356-0.028 0.114-0.031 0.22-0.083 0.309-0.154 0.139-0.194 0.2-0.422 0.174-0.649 0.001-0.019 0.001-0.041 0.001-0.063 0-0.163-0.022-0.321-0.062-0.471l0.003 0.013c-0.019-0.061-0.050-0.114-0.089-0.158l0 0c-0.042-0.047-0.093-0.086-0.149-0.114l-0.003-0.001c-0.141-0.059-0.304-0.094-0.476-0.094-0.022 0-0.044 0.001-0.066 0.002l0.003-0h-0.469v1.717h0.469zM54.695 9.901h1.297l1.331 5.743h-1.126l-0.263-1.324h-1.157l-0.27 1.324h-1.143l1.331-5.743zM55.804 13.655l-0.452-2.411-0.452 2.411h0.903zM58.398 9.901h0.846l1.618 3.276v-3.276h1.003v5.743h-0.804l-1.629-3.421v3.421h-1.036l0.002-5.743zM64.213 13.454l-1.346-3.545h1.134l0.821 2.278 0.77-2.278h1.109l-1.329 3.546v2.19h-1.159v-2.19zM35.592 18.156v0.3h-0.986v2.334h-0.413v-2.334h-0.991v-0.3h2.389zM38.682 20.79h-0.319c-0.003 0-0.006 0-0.009 0-0.030 0-0.058-0.009-0.081-0.025l0 0c-0.023-0.015-0.041-0.035-0.052-0.060l-0-0.001-0.285-0.626h-1.368l-0.284 0.626c-0.009 0.028-0.024 0.052-0.044 0.071l-0 0c-0.023 0.016-0.051 0.025-0.082 0.025-0.003 0-0.005-0-0.008-0l0 0h-0.319l1.208-2.634h0.42l1.223 2.624zM36.682 19.813h1.14l-0.484-1.072c-0.031-0.067-0.061-0.15-0.086-0.235l-0.003-0.014c-0.017 0.050-0.031 0.098-0.045 0.14l-0.044 0.11-0.478 1.070zM40.764 20.532c0.076 0.004 0.151 0.004 0.228 0 0.065-0.006 0.129-0.016 0.193-0.031 0.059-0.012 0.117-0.028 0.174-0.048 0.053-0.018 0.107-0.042 0.161-0.065v-0.592h-0.483c-0.001 0-0.003 0-0.004 0-0.023 0-0.044-0.008-0.061-0.022l0 0c-0.008-0.006-0.014-0.013-0.018-0.021l-0-0c-0.004-0.007-0.006-0.015-0.006-0.024 0-0.001 0-0.002 0-0.003v0-0.202h0.937v1.010c-0.147 0.091-0.316 0.165-0.496 0.211l-0.013 0.003c-0.1 0.026-0.2 0.043-0.302 0.055-0.117 0.011-0.235 0.016-0.353 0.016-0.005 0-0.010 0-0.015 0-0.212 0-0.416-0.036-0.606-0.102l0.013 0.004c-0.186-0.065-0.347-0.158-0.486-0.277l0.002 0.002c-0.129-0.114-0.234-0.253-0.308-0.409l-0.003-0.008c-0.070-0.156-0.111-0.338-0.111-0.529 0-0.006 0-0.012 0-0.019v0.001c-0-0.005-0-0.010-0-0.016 0-0.193 0.040-0.377 0.112-0.543l-0.003 0.009c0.069-0.156 0.176-0.299 0.312-0.417 0.138-0.119 0.302-0.211 0.484-0.273 0.206-0.068 0.427-0.101 0.647-0.098 0.112 0 0.225 0.007 0.336 0.023 0.098 0.014 0.195 0.036 0.287 0.067 0.085 0.027 0.166 0.063 0.242 0.105 0.074 0.041 0.144 0.087 0.211 0.137l-0.116 0.163c-0.010 0.015-0.023 0.027-0.039 0.035l-0.001 0c-0.016 0.009-0.035 0.014-0.055 0.014h-0c-0.028-0.001-0.053-0.008-0.075-0.021l0.001 0c-0.049-0.023-0.088-0.044-0.126-0.066l0.007 0.004c-0.045-0.025-0.099-0.049-0.154-0.069l-0.008-0.002c-0.062-0.022-0.136-0.042-0.213-0.057l-0.009-0.001c-0.087-0.015-0.188-0.023-0.29-0.023-0.006 0-0.011 0-0.017 0h0.001c-0.004-0-0.010-0-0.015-0-0.162 0-0.317 0.027-0.462 0.076l0.010-0.003c-0.134 0.046-0.256 0.117-0.356 0.208-0.095 0.090-0.171 0.199-0.222 0.321l-0.002 0.006c-0.051 0.13-0.081 0.281-0.081 0.439s0.030 0.309 0.084 0.448l-0.003-0.008c0.053 0.124 0.135 0.237 0.242 0.332 0.099 0.090 0.219 0.161 0.352 0.208 0.154 0.046 0.316 0.063 0.479 0.052zM44.615 20.49h1.319v0.3h-1.722v-2.634h0.412l-0.009 2.334zM47.306 20.79h-0.412v-2.634h0.412v2.634zM48.843 18.169c0.025 0.012 0.046 0.028 0.063 0.047l0 0 1.766 1.986c-0.001-0.014-0.002-0.030-0.002-0.047s0.001-0.033 0.002-0.049l-0 0.002v-1.963h0.36v2.645h-0.208c-0.004 0-0.009 0-0.014 0-0.027 0-0.054-0.006-0.077-0.016l0.001 0c-0.025-0.013-0.047-0.030-0.065-0.050l-0-0-1.764-1.984v2.048h-0.346v-2.634h0.215c0.023 0 0.047 0.004 0.068 0.012zM54.074 18.156v0.289h-1.464v0.87h1.186v0.279h-1.186v0.9h1.464v0.289h-1.889v-2.628h1.889zM10.783 1.887l18.344 4.498v15.758l-18.344-4.495v-15.762zM9.606 0.544v17.869l20.695 5.075v-17.867l-20.694-5.076z"></path>
<path fill="currentColor" d="M20.698 31.782l-20.698-5.079v-17.866l20.698 5.077v17.869z"></path>
<path fill="currentColor" d="M9.949 1.684l18.105 4.441-7.699 6.649-18.108-4.443 7.703-6.648zM9.606 0.545l-9.606 8.291 20.698 5.078 9.603-8.294-20.695-5.076zM21.862 30.777l8.439-7.289-8.439-2.069v9.359z"></path>
</symbol>
<symbol id="icon-icon-clock" viewBox="0 0 32 32">
<path fill="#212121" style="fill: var(--color2, #212121)" d="M31.299 15.302c-0.001-8.453-6.855-15.304-15.309-15.302s-15.304 6.856-15.302 15.309c0.002 6.788 4.422 12.544 10.542 14.546l0.108 0.031c0.061 0.019 0.123 0.029 0.187 0.029 0.12 0 0.238-0.032 0.342-0.094 0.135-0.080 0.236-0.207 0.283-0.357l3.865-12.251c1.054-0.004 1.906-0.859 1.906-1.913 0-1.056-0.856-1.913-1.913-1.913-0.303 0-0.59 0.071-0.845 0.196l0.011-0.005-5.106-5.107c-0.114-0.11-0.271-0.179-0.443-0.179-0.352 0-0.638 0.286-0.638 0.638 0 0.172 0.068 0.328 0.179 0.443l-0-0 5.104 5.11c-0.121 0.241-0.191 0.525-0.191 0.826 0 0.602 0.283 1.137 0.723 1.48l0.004 0.003-3.683 11.674c-7.278-2.681-11.005-10.755-8.324-18.034s10.755-11.005 18.034-8.324c7.278 2.681 11.005 10.755 8.324 18.033-1.345 3.582-4.004 6.407-7.375 7.939l-0.088 0.036-0.398-1.874c-0.063-0.291-0.318-0.506-0.624-0.506-0.164 0-0.313 0.062-0.426 0.163l0.001-0.001-3.837 3.426c-0.132 0.117-0.214 0.287-0.214 0.477 0 0.283 0.185 0.524 0.441 0.606l0.005 0.001 4.899 1.564c0.058 0.020 0.126 0.031 0.196 0.031 0.352 0 0.637-0.285 0.637-0.637 0-0.047-0.005-0.093-0.015-0.138l0.001 0.004-0.391-1.839c5.528-2.375 9.329-7.772 9.329-14.058 0-0.011 0-0.023-0-0.034v0.002zM15.994 14.665c0.352 0 0.638 0.286 0.638 0.638s-0.286 0.638-0.638 0.638v0c-0.352 0-0.638-0.286-0.638-0.638s0.286-0.638 0.638-0.638v0zM18.094 29.53l2.184-1.949 0.603 2.84-2.787-0.892z"></path>
<path fill="#2196f3" style="fill: var(--color3, #2196f3)" d="M15.356 3.185v1.276c0 0.352 0.286 0.638 0.638 0.638s0.638-0.286 0.638-0.638v0-1.276c0-0.352-0.286-0.638-0.638-0.638s-0.638 0.286-0.638 0.638v0zM3.876 14.665c-0.352 0-0.638 0.286-0.638 0.638s0.286 0.638 0.638 0.638h1.276c0.352 0 0.638-0.286 0.638-0.638s-0.286-0.638-0.638-0.638h-1.276zM28.11 15.941c0.352 0 0.638-0.286 0.638-0.638s-0.286-0.638-0.638-0.638h-1.276c-0.352 0-0.638 0.286-0.638 0.638s0.286 0.638 0.638 0.638h1.276z"></path>
</symbol>
<symbol id="icon-icon-diagram" viewBox="0 0 32 32">
<path fill="#2196f3" style="fill: var(--color3, #2196f3)" d="M14.927 14.966h1.066v4.798h-1.066v-4.798zM19.192 17.099h1.066v2.665h-1.066v-2.665zM10.662 18.698h1.066v1.066h-1.066v-1.066zM7.464 18.164h1.066v1.599h-1.066v-1.599z"></path>
<path fill="#212121" style="fill: var(--color2, #212121)" d="M1.599 28.293h25.589c0 0 0 0 0 0 0.883 0 1.599-0.716 1.599-1.599v0-2.132c0-0.883-0.716-1.599-1.599-1.599v0h-0.533v-13.295l3.028-2.868c0.207 0.104 0.452 0.166 0.711 0.166 0.888 0 1.608-0.72 1.608-1.608s-0.72-1.608-1.608-1.608c-0.888 0-1.608 0.72-1.608 1.608 0 0.247 0.056 0.481 0.155 0.69l-0.004-0.010-2.281 2.162v-1.23c0-0.883-0.716-1.599-1.599-1.599v0h-21.324c-0.883 0-1.599 0.716-1.599 1.599v0 15.993h-0.533c-0.883 0-1.599 0.716-1.599 1.599v0 2.132c0 0.883 0.716 1.599 1.599 1.599v0zM30.387 4.837c0.294 0 0.533 0.239 0.533 0.533s-0.239 0.533-0.533 0.533v0c-0.294 0-0.533-0.239-0.533-0.533s0.239-0.533 0.533-0.533v0zM3.198 6.969c0-0.294 0.239-0.533 0.533-0.533h21.324c0.294 0 0.533 0.239 0.533 0.533v2.239l-1.066 1.013v-2.185c0-0.295-0.239-0.534-0.534-0.534h-19.191c-0.294 0-0.534 0.239-0.534 0.533v13.328c0 0.294 0.239 0.533 0.534 0.533h19.191c0.295 0 0.534-0.239 0.534-0.533v-9.675l1.066-1.010v12.285h-22.391v-15.992zM7.997 13.9c-0.001 0-0.003 0-0.005 0-0.883 0-1.599 0.716-1.599 1.599s0.716 1.599 1.599 1.599c0.432 0 0.825-0.172 1.112-0.45l-0 0 1.853 0.93c0.215 0.107 0.476 0.057 0.636-0.123l3.939-4.432 3.872 2.902c0.208 0.155 0.498 0.139 0.686-0.039l3.365-3.188v8.132h-18.125v-12.262h18.125v2.661l-3.772 3.572-3.904-2.927c-0.088-0.067-0.2-0.107-0.32-0.107-0.158 0-0.3 0.069-0.398 0.178l-0 0.001-3.993 4.493-1.493-0.747c0.011-0.064 0.017-0.128 0.020-0.193 0-0.883-0.716-1.599-1.599-1.599v0zM8.53 15.499c0 0.294-0.239 0.533-0.533 0.533s-0.533-0.239-0.533-0.533v0c0-0.294 0.239-0.533 0.533-0.533s0.533 0.239 0.533 0.533v0zM11.728 24.029h5.331v0.533c0 0.294-0.238 0.533-0.533 0.533h-4.265c-0.294 0-0.533-0.239-0.533-0.533v0-0.533zM1.067 24.562c0-0.294 0.238-0.533 0.533-0.533h9.063v0.533c0 0.883 0.716 1.599 1.599 1.599v0h4.265c0.883 0 1.599-0.716 1.599-1.599v0-0.533h9.063c0.294 0 0.533 0.239 0.533 0.533v2.132c0 0.294-0.239 0.533-0.533 0.533h-25.589c-0 0-0 0-0 0-0.294 0-0.533-0.239-0.533-0.533 0 0 0 0 0 0v0-2.132z"></path>
</symbol>
<symbol id="icon-instagram" viewBox="0 0 32 32">
<path fill="currentColor" d="M31.988 9.414c-0.074-1.702-0.349-2.871-0.743-3.884-0.425-1.112-1.055-2.060-1.851-2.839l-0.001-0.001c-0.78-0.793-1.725-1.42-2.78-1.828l-0.054-0.018c-1.020-0.394-2.182-0.668-3.884-0.743-1.713-0.082-2.257-0.101-6.606-0.101-4.347 0-4.891 0.019-6.599 0.094-1.7 0.074-2.871 0.349-3.882 0.743-1.113 0.424-2.061 1.055-2.84 1.851l-0.001 0.001c-0.792 0.78-1.419 1.725-1.826 2.78l-0.018 0.054c-0.395 1.020-0.669 2.182-0.744 3.884-0.082 1.713-0.101 2.257-0.101 6.606 0 4.347 0.019 4.891 0.094 6.599 0.075 1.702 0.351 2.871 0.744 3.884 0.427 1.111 1.056 2.058 1.85 2.839l0.001 0.001c0.8 0.813 1.771 1.444 2.834 1.844 1.020 0.395 2.184 0.671 3.884 0.744 1.708 0.075 2.253 0.094 6.599 0.094 4.348 0 4.893-0.019 6.599-0.094 1.702-0.074 2.871-0.349 3.884-0.743 2.159-0.851 3.836-2.527 4.667-4.631l0.019-0.055c0.394-1.020 0.669-2.184 0.744-3.884 0.075-1.708 0.093-2.253 0.093-6.599s-0.006-4.891-0.080-6.599zM29.106 22.488c-0.070 1.564-0.333 2.408-0.551 2.971-0.552 1.4-1.641 2.488-3.006 3.026l-0.036 0.013c-0.56 0.219-1.412 0.482-2.97 0.551-1.689 0.075-2.195 0.094-6.468 0.094-4.271 0-4.785-0.019-6.468-0.094-1.564-0.069-2.408-0.331-2.971-0.551-0.721-0.269-1.335-0.676-1.837-1.193l-0.001-0.001c-0.517-0.504-0.925-1.117-1.185-1.804l-0.011-0.034c-0.218-0.564-0.48-1.414-0.549-2.971-0.075-1.689-0.094-2.197-0.094-6.468 0-4.273 0.019-4.787 0.094-6.468 0.069-1.564 0.331-2.408 0.549-2.971 0.269-0.723 0.678-1.338 1.199-1.838l0.002-0.002c0.505-0.517 1.119-0.924 1.807-1.183l0.034-0.011c0.56-0.219 1.412-0.48 2.97-0.551 1.689-0.074 2.197-0.093 6.468-0.093 4.278 0 4.785 0.019 6.468 0.093 1.564 0.069 2.408 0.331 2.971 0.551 0.693 0.256 1.326 0.663 1.838 1.194 0.532 0.52 0.938 1.145 1.196 1.841 0.218 0.56 0.48 1.412 0.549 2.97 0.075 1.689 0.094 2.195 0.094 6.468 0 4.271-0.019 4.771-0.094 6.462z"></path>
<path fill="currentColor" d="M16.069 7.787c-4.542 0.002-8.223 3.684-8.224 8.226v0c0 0 0 0.001 0 0.002 0 4.544 3.684 8.228 8.228 8.228s8.228-3.684 8.228-8.228c0-4.544-3.684-8.228-8.228-8.228-0.001 0-0.001 0-0.002 0h0zM16.069 21.348c-2.947-0-5.335-2.389-5.335-5.336s2.389-5.336 5.336-5.336c0 0 0.001 0 0.001 0h-0c2.947 0 5.337 2.389 5.337 5.337s-2.389 5.337-5.337 5.337v0zM26.541 7.462c0 1.061-0.86 1.921-1.921 1.921s-1.921-0.86-1.921-1.921v0c0-1.061 0.86-1.921 1.921-1.921s1.921 0.86 1.921 1.921v0z"></path>
</symbol>
<symbol id="icon-linkedin" viewBox="0 0 32 32">
<path fill="currentColor" d="M32.012 32.020h0.008v-11.745c0-5.744-1.238-10.17-7.952-10.17-3.229 0-5.395 1.771-6.281 3.452h-0.093v-2.915h-6.369v21.377h6.631v-10.584c0-2.787 0.528-5.483 3.98-5.483 3.401 0 3.45 3.181 3.45 5.661v10.408h6.625zM0.528 10.642h6.639v21.378h-6.639v-21.378zM3.846 0c-2.124 0-3.846 1.722-3.846 3.846v0c0 2.121 1.723 3.881 3.846 3.881 2.121 0 3.844-1.758 3.844-3.881s-1.721-3.844-3.844-3.846h-0z"></path>
</symbol>
<symbol id="icon-twitter" viewBox="0 0 32 32">
<path fill="currentColor" d="M32.020 6.082c-1.101 0.494-2.378 0.858-3.715 1.029l-0.068 0.007c1.361-0.817 2.383-2.079 2.875-3.582l0.013-0.046c-1.198 0.723-2.593 1.274-4.079 1.574l-0.084 0.014c-1.201-1.28-2.902-2.077-4.79-2.077-3.624 0-6.563 2.938-6.563 6.563 0 0.001 0 0.003 0 0.004v-0c0 0.52 0.043 1.021 0.152 1.497-5.458-0.266-10.286-2.882-13.53-6.865-0.564 0.95-0.899 2.093-0.903 3.315v0.001c0 2.273 1.172 4.289 2.915 5.455-1.092-0.030-2.109-0.326-2.996-0.824l0.033 0.017v0.072c0.003 3.167 2.238 5.811 5.216 6.444l0.043 0.008c-0.499 0.136-1.072 0.215-1.663 0.215-0.020 0-0.041-0-0.061-0l0.003 0c-0.419 0-0.844-0.024-1.242-0.112 0.85 2.6 3.263 4.512 6.133 4.572-2.216 1.747-5.049 2.802-8.127 2.802-0.004 0-0.008 0-0.013 0h0.001c-0.018 0-0.040 0-0.062 0-0.532 0-1.056-0.034-1.57-0.099l0.061 0.006c2.828 1.847 6.291 2.946 10.010 2.946 0.021 0 0.042-0 0.063-0h-0.003c12.080 0 18.684-10.006 18.684-18.68 0-0.288-0.010-0.57-0.024-0.849 1.3-0.936 2.392-2.065 3.26-3.357l0.030-0.047z"></path>
</symbol>
<symbol id="icon-envelope" viewBox="0 0 43 32">
<path fill="currentColor" d="M38.682-0.006h-34.68c-2.206 0-4.002 1.795-4.002 4.002v23.999c0 2.206 1.795 4.002 4.002 4.002h34.68c2.206 0 4.002-1.795 4.002-4.002v-23.999c0-2.206-1.795-4.002-4.002-4.002zM38.682 2.661c0.181 0 0.355 0.037 0.512 0.101l-17.852 15.467-17.852-15.467c0.15-0.064 0.325-0.101 0.509-0.101 0.001 0 0.002 0 0.003 0h34.68zM38.682 29.328h-34.68c-0.737 0-1.334-0.597-1.334-1.334v0-22.414l17.799 15.422c0.233 0.203 0.539 0.327 0.875 0.327s0.642-0.124 0.877-0.328l-0.002 0.001 17.799-15.419v22.411c0 0.737-0.597 1.334-1.334 1.334v0z"></path>
</symbol>
<symbol id="icon-smartphone" viewBox="0 0 20 32">
<path fill="currentColor" d="M17.009 0h-14.005c-1.655 0-3.001 1.347-3.001 3.001v26.010c0 1.655 1.347 3.001 3.001 3.001h14.005c1.655 0 3.001-1.347 3.001-3.001v-26.010c0-1.655-1.347-3.001-3.001-3.001zM3.004 2.001h14.005c0.552 0 1 0.448 1 1v0 21.008h-16.006v-21.008c0-0.553 0.448-1 1-1v0zM17.009 30.012h-14.005c-0.553 0-1-0.448-1-1v0-3.001h16.006v3.001c0 0.552-0.448 1-1 1v0z"></path>
<path fill="currentColor" d="M4.712 27.489c0.18 0.164 0.293 0.399 0.293 0.66s-0.113 0.497-0.292 0.66l-0.001 0.001c-0.186 0.17-0.435 0.274-0.708 0.274s-0.522-0.104-0.709-0.275l0.001 0.001c-0.18-0.164-0.293-0.399-0.293-0.66s0.113-0.497 0.292-0.66l0.001-0.001c0.186-0.17 0.435-0.275 0.708-0.275s0.522 0.104 0.709 0.275l-0.001-0.001z"></path>
</symbol>
<symbol id="icon-close-button" viewBox="0 0 32 32">
<path d="M26.667 7.303l-1.97-1.97-7.808 7.808-7.808-7.808-1.97 1.97 7.808 7.808-7.808 7.808 1.97 1.97 7.808-7.808 7.808 7.808 1.97-1.97-7.808-7.808 7.808-7.808z"></path>
</symbol>
<symbol id="icon-person-black" viewBox="0 0 32 32">
<path fill="currentColor" d="M16 16c2.946 0 5.333-2.388 5.333-5.333s-2.388-5.333-5.333-5.333v0c-2.946 0-5.333 2.388-5.333 5.333s2.388 5.333 5.333 5.333v0zM16 18.667c-3.561 0-10.667 1.787-10.667 5.333v1.333c0 0.732 0.599 1.333 1.333 1.333h18.667c0.732 0 1.333-0.601 1.333-1.333v-1.333c0-3.547-7.108-5.333-10.667-5.333z"></path>
</symbol>
<symbol id="icon-phone-black" viewBox="0 0 32 32">
<path fill="currentColor" d="M24.882 19.774l-3.268-0.373c-0.090-0.011-0.194-0.018-0.299-0.018-0.707 0-1.348 0.287-1.811 0.75l-2.368 2.368c-3.669-1.894-6.585-4.81-8.427-8.372l-0.051-0.108 2.382-2.377c0.463-0.463 0.75-1.103 0.75-1.81 0-0.106-0.006-0.21-0.019-0.312l0.001 0.012-0.373-3.243c-0.155-1.287-1.24-2.276-2.557-2.276-0.001 0-0.002 0-0.003 0h-2.226c-1.454 0-2.663 1.209-2.574 2.663 0.683 10.987 9.47 19.76 20.444 20.443 1.452 0.089 2.663-1.12 2.663-2.574v-2.226c0-0.004 0-0.008 0-0.012 0-1.308-0.985-2.386-2.253-2.532l-0.012-0.001z"></path>
</symbol>
<symbol id="icon-email-black" viewBox="0 0 32 32">
<path fill="currentColor" d="M26.667 5.333h-21.333c-1.467 0-2.652 1.2-2.652 2.667l-0.014 16c0 1.467 1.2 2.667 2.667 2.667h21.333c1.467 0 2.667-1.2 2.667-2.667v-16c0-1.467-1.2-2.667-2.667-2.667zM26.133 11.001l-9.426 5.892c-0.201 0.126-0.446 0.2-0.708 0.2s-0.506-0.075-0.713-0.204l0.006 0.003-9.426-5.892c-0.336-0.201-0.557-0.562-0.557-0.975 0-0.625 0.507-1.132 1.132-1.132 0.233 0 0.449 0.070 0.629 0.19l-0.004-0.003 8.933 5.586 8.933-5.588c0.176-0.118 0.392-0.188 0.624-0.188 0.625 0 1.132 0.507 1.132 1.132 0 0.413-0.221 0.775-0.552 0.972l-0.005 0.003z"></path>
</symbol>
<symbol id="icon-send" viewBox="0 0 32 32">
<path fill="currentColor" d="M32 0l-32 18 10.227 3.788 15.773-14.788-11.998 16.186 0.010 0.004-0.012-0.004v8.814l5.735-6.691 7.265 2.691 5-28z"></path>
</symbol>
<symbol id="unchecked-icon" viewBox="0 0 34 32">
<path fill="currentColor" d="M30.34 3.556v24.887h-26.547v-24.887h26.547zM30.34 0h-26.547c-2.086 0-3.793 1.6-3.793 3.556v24.887c0 1.956 1.707 3.556 3.793 3.556h26.547c2.086 0 3.793-1.6 3.793-3.556v-24.887c0-1.956-1.707-3.556-3.793-3.556z"></path>
</symbol>
<symbol id="icon-check" viewBox="0 0 34 32">
<path fill="#2196f3" style="fill: var(--color1, #2196f3)" d="M4.267 0h25.6c2.356 0 4.267 1.91 4.267 4.267v23.467c0 2.356-1.91 4.267-4.267 4.267h-25.6c-2.356 0-4.267-1.91-4.267-4.267v-23.467c0-2.356 1.91-4.267 4.267-4.267z"></path>
<path fill="#fff" style="fill: var(--color2, #fff); stroke: var(--color2, #fff)" stroke="#fff" stroke-linejoin="miter" stroke-linecap="butt" stroke-miterlimit="4" stroke-width="0.4267" d="M8.442 16.538l-0.147-0.141-0.147 0.139-2.057 1.95 0.162 0.156 7.605 7.253 0.147-0.141 16.171-15.426-0.162-0.154-2.029-1.935-0.147 0.141-13.98 13.325-5.417-5.167z"></path>
</symbol>
<symbol id="icon-menu_burger" viewBox="0 0 48 32">
<path fill="currentColor" d="M0 5.333v-5.333h48v5.333h-48zM0 18.667h48v-5.333h-48v5.333zM0 32h48v-5.333h-48v5.333z"></path>
</symbol>
<symbol id="icon-close-x-btn" viewBox="0 0 32 32">
<path fill="currentColor" d="M31.439 3.166l-3.166-3.166-12.553 12.553-12.553-12.553-3.166 3.166 12.553 12.553-12.553 12.553 3.166 3.166 12.553-12.553 12.553 12.553 3.166-3.166-12.553-12.553 12.553-12.553z"></path>
</symbol>
<symbol id="icon-icon-brand-11" viewBox="0 0 29 32">
<path fill="currentColor"  d="M7.689 5.83l2.973 2.815h8.293v7.851l2.973 2.815v-13.48h-14.239z"></path>
<path fill="currentColor"  d="M5.249 8.525v13.095h13.832v-5.205l-8.331-7.887-5.501-0.003zM16.446 19.704h-9.009v-8.807h0.637v8.211h8.371v0.597z"></path>
<path fill="currentColor"  d="M9.232 24.048l0.333-0.686h0.278l-0.485 0.914v0.533h-0.252v-0.533l-0.486-0.914h0.279l0.333 0.686zM10.66 24.473h-0.56l-0.117 0.337h-0.261l0.546-1.446h0.225l0.547 1.446h-0.262l-0.118-0.337zM10.17 24.27h0.419l-0.21-0.6-0.21 0.6zM11.651 24.419c0-0.067 0.018-0.128 0.055-0.183s0.109-0.123 0.216-0.2c-0.056-0.071-0.096-0.131-0.118-0.181s-0.033-0.098-0.033-0.144c0-0.113 0.034-0.202 0.103-0.268s0.162-0.099 0.278-0.099c0.105 0 0.192 0.031 0.258 0.093s0.102 0.138 0.102 0.23c0 0.060-0.015 0.116-0.046 0.167s-0.080 0.1-0.15 0.151l-0.098 0.072 0.279 0.33c0.040-0.079 0.061-0.168 0.061-0.265h0.21c0 0.178-0.042 0.324-0.125 0.438l0.213 0.251h-0.28l-0.081-0.097c-0.103 0.078-0.226 0.116-0.37 0.116s-0.257-0.037-0.344-0.113c-0.085-0.077-0.128-0.175-0.128-0.297zM12.129 24.637c0.081 0 0.157-0.027 0.229-0.081l-0.316-0.372-0.031 0.022c-0.079 0.060-0.119 0.129-0.119 0.206 0 0.067 0.022 0.121 0.065 0.163s0.1 0.062 0.173 0.062zM11.996 23.705c0 0.055 0.034 0.125 0.103 0.21l0.11-0.075 0.031-0.025c0.041-0.036 0.061-0.083 0.061-0.14 0-0.037-0.014-0.069-0.043-0.097s-0.065-0.041-0.109-0.041c-0.047 0-0.085 0.016-0.112 0.048s-0.042 0.072-0.042 0.121zM14.623 24.339c-0.015 0.154-0.072 0.275-0.17 0.362s-0.231 0.129-0.396 0.129c-0.115 0-0.217-0.027-0.305-0.081s-0.155-0.132-0.202-0.233-0.073-0.218-0.074-0.351v-0.135c0-0.136 0.024-0.257 0.073-0.36s0.117-0.184 0.207-0.24c0.091-0.056 0.195-0.085 0.314-0.085 0.16 0 0.288 0.043 0.385 0.13s0.154 0.21 0.17 0.368h-0.25c-0.012-0.104-0.042-0.179-0.091-0.224s-0.119-0.069-0.213-0.069c-0.109 0-0.193 0.040-0.252 0.121-0.059 0.079-0.088 0.197-0.090 0.351v0.128c0 0.156 0.028 0.275 0.084 0.358s0.138 0.123 0.246 0.123c0.099 0 0.173-0.022 0.223-0.067s0.081-0.118 0.094-0.221h0.25zM16.003 24.124c0 0.142-0.024 0.267-0.073 0.373s-0.119 0.189-0.211 0.246c-0.091 0.057-0.195 0.085-0.314 0.085-0.117 0-0.221-0.028-0.314-0.085-0.091-0.058-0.162-0.14-0.213-0.245-0.049-0.106-0.075-0.228-0.075-0.366v-0.081c0-0.141 0.024-0.265 0.074-0.373s0.121-0.191 0.212-0.248c0.091-0.058 0.196-0.086 0.314-0.086s0.222 0.028 0.313 0.085c0.091 0.056 0.162 0.138 0.212 0.244s0.075 0.23 0.075 0.37v0.080zM15.751 24.048c0-0.16-0.030-0.283-0.091-0.369s-0.146-0.128-0.257-0.128c-0.109 0-0.194 0.043-0.255 0.128s-0.092 0.205-0.093 0.36v0.084c0 0.159 0.031 0.282 0.092 0.369s0.148 0.13 0.258 0.13c0.111 0 0.197-0.042 0.256-0.127s0.091-0.208 0.091-0.371v-0.075z"></path>
</symbol>
<symbol id="icon-icon-brand-21" viewBox="0 0 25 32">
<path fill="currentColor"  d="M11.263 8.016h0.047c0.087 0 0.182 0.009 0.276 0.017 0.413 0.029 0.823 0.091 1.226 0.185v-0.991c-0.415-0.104-0.839-0.172-1.265-0.202-0.162-0.012-0.335-0.020-0.511-0.025h-0.148c-0.857 0.003-1.709 0.113-2.54 0.327-0.945 0.236-1.852 0.605-2.694 1.096v9.829c0.811-0.44 1.674-0.777 2.568-1.001 0.706-0.18 1.428-0.291 2.156-0.331h0.029c0.122-0.006 0.244-0.010 0.368-0.011v-1.007c-0.946 0.012-1.886 0.137-2.802 0.372-0.339 0.088-0.667 0.183-0.974 0.289l-0.35 0.119v-7.664l0.15-0.072c1.143-0.542 2.379-0.857 3.64-0.929 0.011-0.001 0.021-0.001 0.032 0 0.139-0.007 0.28-0.011 0.417-0.011h0.158c0.073 0.002 0.146 0.004 0.218 0.008z"></path>
<path fill="currentColor"  d="M13.733 9.054c-0.23 0-0.458-0.008-0.678-0.025-0.263-0.020-0.533-0.051-0.788-0.094-0.156-0.026-0.309-0.058-0.458-0.093v9.717c0.63 0.156 1.277 0.232 1.927 0.227 0.857-0.004 1.709-0.113 2.54-0.327 0.945-0.236 1.852-0.605 2.695-1.096v-9.654c-0.811 0.44-1.673 0.777-2.568 1.002-0.872 0.224-1.769 0.339-2.67 0.343zM17.618 9.222l0.35-0.118v7.667l-0.15 0.072c-0.574 0.273-1.174 0.489-1.791 0.643-0.749 0.194-1.518 0.293-2.292 0.296-0.231 0-0.461-0.010-0.683-0.029l-0.24-0.021v-7.884l0.28 0.019c0.203 0.013 0.413 0.020 0.642 0.020 0.982-0.004 1.959-0.129 2.91-0.373 0.327-0.086 0.652-0.183 0.974-0.291z"></path>
<path fill="currentColor"  d="M6.334 21.612c-0.050-0.052-0.111-0.093-0.178-0.12s-0.139-0.040-0.211-0.037c-0.077-0.001-0.154 0.013-0.225 0.042-0.066 0.026-0.125 0.065-0.175 0.115s-0.088 0.11-0.113 0.176c-0.028 0.069-0.041 0.143-0.040 0.218v1.313c-0.003 0.093 0.014 0.185 0.052 0.269 0.031 0.067 0.076 0.127 0.131 0.176 0.052 0.044 0.114 0.076 0.181 0.093 0.064 0.018 0.13 0.027 0.196 0.027 0.073 0.001 0.146-0.015 0.212-0.046 0.066-0.029 0.125-0.070 0.175-0.122s0.088-0.111 0.115-0.176c0.028-0.066 0.042-0.138 0.042-0.21v-0.147h-0.343v0.117c0.001 0.040-0.006 0.080-0.020 0.117-0.011 0.028-0.028 0.053-0.050 0.074-0.021 0.017-0.046 0.030-0.072 0.038-0.023 0.008-0.048 0.012-0.072 0.012-0.031 0.004-0.062-0.001-0.090-0.013s-0.053-0.032-0.071-0.057c-0.032-0.053-0.048-0.114-0.046-0.176v-1.225c-0.002-0.068 0.012-0.136 0.042-0.196 0.018-0.028 0.043-0.050 0.073-0.064s0.063-0.020 0.095-0.015c0.030-0.001 0.059 0.005 0.086 0.018s0.050 0.032 0.068 0.056c0.039 0.050 0.059 0.113 0.057 0.176v0.113h0.34v-0.134c0.001-0.078-0.014-0.157-0.042-0.23-0.025-0.069-0.065-0.132-0.115-0.185z"></path>
<path fill="currentColor"  d="M8.373 21.597c-0.11-0.093-0.248-0.143-0.391-0.145-0.070 0-0.139 0.013-0.205 0.037s-0.128 0.060-0.181 0.107c-0.057 0.051-0.102 0.114-0.133 0.184-0.034 0.080-0.051 0.167-0.050 0.255v1.259c-0.002 0.088 0.015 0.177 0.050 0.258 0.031 0.068 0.077 0.128 0.133 0.176 0.052 0.049 0.114 0.086 0.181 0.111 0.066 0.024 0.135 0.037 0.205 0.037s0.139-0.013 0.205-0.037c0.068-0.025 0.131-0.062 0.186-0.111s0.099-0.109 0.13-0.176c0.035-0.081 0.052-0.169 0.050-0.258v-1.259c0.002-0.087-0.015-0.174-0.050-0.255-0.031-0.069-0.075-0.132-0.13-0.184zM8.214 23.295c0.003 0.033-0.002 0.067-0.014 0.099s-0.031 0.060-0.055 0.083c-0.046 0.038-0.103 0.059-0.161 0.059s-0.116-0.021-0.161-0.059c-0.024-0.023-0.043-0.052-0.055-0.083s-0.016-0.065-0.014-0.099v-1.259c-0.003-0.033 0.002-0.067 0.014-0.099s0.031-0.060 0.055-0.083c0.046-0.038 0.103-0.059 0.161-0.059s0.116 0.021 0.161 0.059c0.024 0.023 0.043 0.052 0.055 0.083s0.016 0.065 0.014 0.099v1.259z"></path>
<path fill="currentColor"  d="M11.052 23.857v-2.384h-0.33l-0.434 1.262h-0.006l-0.437-1.262h-0.327v2.384h0.34v-1.451h0.006l0.334 1.025h0.17l0.336-1.025h0.006v1.451h0.34z"></path>
<path fill="currentColor"  d="M12.988 21.64c-0.052-0.059-0.119-0.104-0.193-0.13-0.080-0.026-0.163-0.039-0.247-0.037h-0.506v2.384h0.34v-0.931h0.175c0.106 0.005 0.211-0.017 0.307-0.065 0.077-0.043 0.142-0.106 0.186-0.182 0.039-0.064 0.066-0.134 0.078-0.208 0.013-0.090 0.020-0.181 0.019-0.271 0.003-0.114-0.008-0.229-0.033-0.34-0.023-0.083-0.066-0.158-0.125-0.219zM12.813 22.367c-0.002 0.043-0.012 0.086-0.031 0.124-0.020 0.037-0.050 0.066-0.087 0.084-0.050 0.023-0.105 0.033-0.16 0.030h-0.155v-0.811h0.175c0.053-0.003 0.105 0.008 0.153 0.030 0.035 0.020 0.063 0.051 0.080 0.088 0.019 0.042 0.029 0.087 0.030 0.133 0 0.050 0 0.103 0 0.158s0.004 0.113 0 0.164h-0.004z"></path>
<path fill="currentColor"  d="M14.597 21.473h-0.278l-0.525 2.384h0.34l0.1-0.512h0.463l0.1 0.512h0.34l-0.538-2.384zM14.284 23.020l0.167-0.865h0.006l0.166 0.865h-0.34z"></path>
<path fill="currentColor"  d="M16.792 22.909h-0.006l-0.513-1.436h-0.327v2.384h0.34v-1.434h0.007l0.519 1.434h0.32v-2.384h-0.34v1.436z"></path>
<path fill="currentColor"  d="M18.868 21.473l-0.273 0.948h-0.007l-0.273-0.948h-0.36l0.467 1.376v1.008h0.34v-1.008l0.467-1.376h-0.36z"></path>
<path fill="currentColor"  d="M5.387 24.531h0.164v0.46h0.111v-0.46h0.163v-0.094h-0.438v0.094z"></path>
<path fill="currentColor"  d="M6.764 24.437l-0.214 0.554h0.118l0.046-0.126h0.221l0.047 0.126h0.121l-0.22-0.554h-0.118zM6.746 24.771l0.075-0.205 0.075 0.205h-0.151z"></path>
<path fill="currentColor"  d="M8.124 24.786h0.128v0.071c-0.037 0.030-0.084 0.047-0.131 0.047-0.022 0.001-0.044-0.003-0.065-0.012s-0.038-0.023-0.052-0.041c-0.029-0.042-0.044-0.093-0.041-0.145 0-0.123 0.053-0.185 0.159-0.185 0.028-0.003 0.056 0.005 0.079 0.021s0.039 0.040 0.047 0.067l0.11-0.021c-0.024-0.108-0.102-0.163-0.235-0.163-0.071-0.002-0.14 0.024-0.194 0.071-0.028 0.028-0.049 0.061-0.063 0.097s-0.020 0.076-0.016 0.115c-0.003 0.076 0.022 0.15 0.071 0.208 0.027 0.028 0.060 0.050 0.096 0.064s0.075 0.020 0.114 0.017c0.087 0.003 0.171-0.029 0.235-0.088v-0.218h-0.24v0.093z"></path>
<path fill="currentColor"  d="M9.514 24.437h-0.112v0.554h0.388v-0.094h-0.276v-0.46z"></path>
<path fill="currentColor"  d="M10.689 24.437h-0.112v0.554h0.112v-0.554z"></path>
<path fill="currentColor"  d="M11.838 24.806l-0.227-0.37h-0.109v0.554h0.104v-0.362l0.222 0.362h0.111v-0.554h-0.102v0.37z"></path>
<path fill="currentColor"  d="M12.877 24.746h0.276v-0.094h-0.276v-0.121h0.297v-0.094h-0.409v0.554h0.42v-0.094h-0.308v-0.15z"></path>
<path fill="currentColor"  d="M15.395 24.655h-0.218v-0.218h-0.111v0.554h0.111v-0.242h0.218v0.242h0.111v-0.554h-0.111v0.218z"></path>
<path fill="currentColor"  d="M16.439 24.746h0.277v-0.094h-0.277v-0.121h0.298v-0.094h-0.409v0.554h0.419v-0.094h-0.308v-0.15z"></path>
<path fill="currentColor"  d="M17.856 24.746c0.096-0.015 0.146-0.066 0.146-0.154 0.003-0.023-0.001-0.048-0.010-0.069s-0.025-0.040-0.044-0.054c-0.050-0.025-0.106-0.037-0.162-0.033h-0.235v0.554h0.111v-0.231h0.022c0.024-0.002 0.048 0.003 0.069 0.012 0.016 0.010 0.030 0.024 0.039 0.041l0.121 0.176h0.133l-0.067-0.108c-0.030-0.053-0.072-0.099-0.123-0.133zM17.744 24.67h-0.082v-0.139h0.087c0.038-0.003 0.077 0.002 0.113 0.013 0.008 0.007 0.014 0.016 0.019 0.026s0.006 0.021 0.006 0.032c-0.001 0.011-0.003 0.021-0.008 0.031s-0.012 0.018-0.021 0.024c-0.037 0.011-0.075 0.016-0.113 0.013z"></path>
<path fill="currentColor"  d="M18.924 24.746h0.276v-0.094h-0.276v-0.121h0.298v-0.094h-0.41v0.554h0.42v-0.094h-0.308v-0.15z"></path>
</symbol>
<symbol id="icon-icon-brand-31" viewBox="0 0 31 32">
<path fill="currentColor"  d="M9.039 24.91c0.006 0 0.013 0.002 0.019 0.004s0.011 0.006 0.016 0.011l0.091 0.095c-0.070 0.077-0.157 0.138-0.254 0.179-0.114 0.046-0.237 0.067-0.36 0.065-0.116 0.002-0.231-0.018-0.339-0.060-0.097-0.039-0.184-0.096-0.255-0.17-0.073-0.076-0.129-0.165-0.165-0.262-0.039-0.108-0.059-0.222-0.058-0.337-0.002-0.115 0.019-0.23 0.062-0.338 0.039-0.098 0.099-0.187 0.175-0.262 0.077-0.074 0.169-0.132 0.271-0.171 0.111-0.041 0.23-0.061 0.349-0.060 0.111-0.003 0.221 0.016 0.324 0.055 0.089 0.037 0.171 0.088 0.243 0.152l-0.075 0.101c-0.005 0.007-0.012 0.013-0.019 0.018-0.009 0.006-0.020 0.009-0.031 0.008s-0.023-0.004-0.033-0.011l-0.040-0.027-0.057-0.035c-0.024-0.013-0.050-0.024-0.075-0.033-0.033-0.011-0.068-0.020-0.103-0.027-0.044-0.008-0.089-0.011-0.134-0.011-0.086-0.001-0.171 0.015-0.251 0.045-0.074 0.029-0.141 0.072-0.197 0.127-0.056 0.059-0.1 0.127-0.128 0.202-0.032 0.086-0.047 0.176-0.046 0.267-0.002 0.092 0.015 0.184 0.046 0.271 0.027 0.074 0.070 0.143 0.126 0.201 0.052 0.054 0.116 0.098 0.188 0.125 0.074 0.029 0.153 0.044 0.233 0.043 0.046 0.001 0.092-0.002 0.138-0.009 0.074-0.009 0.146-0.033 0.209-0.072 0.032-0.020 0.061-0.042 0.089-0.067 0.012-0.011 0.027-0.017 0.043-0.017z"></path>
<path fill="currentColor"  d="M11.648 24.434c0.002 0.114-0.019 0.227-0.061 0.335-0.037 0.097-0.095 0.185-0.17 0.26s-0.167 0.133-0.267 0.171c-0.221 0.080-0.466 0.080-0.687 0-0.1-0.039-0.19-0.097-0.265-0.171-0.075-0.075-0.134-0.165-0.171-0.262-0.081-0.217-0.081-0.454 0-0.67 0.038-0.098 0.097-0.187 0.171-0.264 0.075-0.072 0.166-0.128 0.265-0.164 0.221-0.082 0.466-0.082 0.687 0 0.1 0.039 0.191 0.097 0.266 0.171 0.074 0.075 0.133 0.163 0.17 0.259 0.042 0.108 0.063 0.222 0.061 0.337zM11.411 24.434c0.002-0.091-0.013-0.182-0.043-0.269-0.025-0.074-0.066-0.143-0.121-0.201-0.053-0.056-0.118-0.099-0.191-0.127-0.161-0.059-0.338-0.059-0.499 0-0.073 0.029-0.138 0.072-0.191 0.127-0.055 0.058-0.097 0.127-0.122 0.201-0.058 0.175-0.058 0.363 0 0.538 0.025 0.074 0.067 0.143 0.122 0.201 0.053 0.055 0.118 0.098 0.191 0.126 0.161 0.057 0.338 0.057 0.499 0 0.073-0.028 0.138-0.071 0.191-0.126 0.054-0.059 0.095-0.127 0.121-0.201 0.030-0.087 0.045-0.178 0.043-0.269z"></path>
<path fill="currentColor"  d="M13.427 24.716l0.024 0.060c0.009-0.022 0.017-0.041 0.026-0.060 0.009-0.020 0.018-0.040 0.029-0.059l0.577-0.999c0.011-0.017 0.022-0.028 0.033-0.031 0.015-0.004 0.031-0.006 0.047-0.005h0.17v1.625h-0.202v-1.195c0-0.015 0-0.032 0-0.051-0.001-0.019-0.001-0.037 0-0.056l-0.58 1.013c-0.008 0.015-0.019 0.028-0.034 0.037s-0.032 0.013-0.050 0.013h-0.033c-0.018 0-0.035-0.004-0.050-0.013s-0.026-0.022-0.034-0.037l-0.597-1.020c0 0.019 0 0.039 0 0.058s0 0.037 0 0.052v1.195h-0.195v-1.622h0.17c0.016-0.001 0.032 0.001 0.047 0.005 0.014 0.006 0.025 0.018 0.032 0.031l0.59 1c0.012 0.018 0.022 0.038 0.029 0.058z"></path>
<path fill="currentColor"  d="M15.599 24.636v0.609h-0.226v-1.623h0.503c0.095-0.002 0.19 0.010 0.281 0.036 0.073 0.020 0.141 0.054 0.199 0.101 0.050 0.044 0.089 0.099 0.113 0.159 0.026 0.066 0.040 0.137 0.038 0.207 0.001 0.071-0.013 0.142-0.042 0.207-0.027 0.063-0.069 0.118-0.122 0.162-0.058 0.049-0.126 0.086-0.2 0.108-0.088 0.027-0.18 0.039-0.272 0.038l-0.273-0.004zM15.599 24.461h0.273c0.059 0.001 0.119-0.008 0.175-0.025 0.047-0.015 0.089-0.039 0.127-0.070 0.034-0.030 0.060-0.067 0.077-0.108 0.018-0.043 0.027-0.090 0.027-0.137 0.003-0.045-0.005-0.090-0.023-0.132s-0.044-0.080-0.079-0.111c-0.086-0.064-0.195-0.095-0.304-0.087h-0.273v0.669z"></path>
<path fill="currentColor"  d="M18.634 25.247h-0.178c-0.018 0.001-0.036-0.005-0.050-0.015-0.013-0.010-0.023-0.023-0.029-0.038l-0.154-0.393h-0.771l-0.159 0.393c-0.006 0.015-0.016 0.027-0.028 0.037-0.015 0.011-0.032 0.017-0.051 0.016h-0.178l0.677-1.626h0.235l0.687 1.626zM17.516 24.643h0.637l-0.269-0.662c-0.020-0.050-0.038-0.101-0.051-0.153l-0.026 0.085c-0.008 0.026-0.017 0.050-0.025 0.069l-0.267 0.661z"></path>
<path fill="currentColor"  d="M19.61 23.628c0.013 0.007 0.025 0.017 0.034 0.029l0.988 1.226c0-0.019 0-0.039 0-0.057s0-0.037 0-0.054v-1.151h0.202v1.626h-0.113c-0.016 0.001-0.032-0.003-0.046-0.010s-0.026-0.018-0.036-0.030l-0.987-1.224c0.001 0.019 0.001 0.037 0 0.056 0 0.018 0 0.035 0 0.050v1.159h-0.202v-1.626h0.12c0.014-0.001 0.028 0.002 0.040 0.008z"></path>
<path fill="currentColor"  d="M22.499 24.6v0.646h-0.226v-0.646l-0.625-0.979h0.202c0.017-0.001 0.035 0.004 0.049 0.014 0.012 0.010 0.023 0.023 0.031 0.037l0.391 0.632c0.016 0.027 0.029 0.052 0.040 0.075s0.020 0.046 0.028 0.069l0.029-0.070c0.011-0.026 0.024-0.050 0.038-0.074l0.385-0.636c0.008-0.013 0.018-0.024 0.029-0.035 0.013-0.011 0.031-0.017 0.049-0.016h0.204l-0.626 0.983z"></path>
<path fill="currentColor"  d="M13.316 20.893c0.098 0.012 0.198 0.022 0.298 0.030 1.524-0.649 2.813-1.712 3.706-3.056s1.351-2.908 1.316-4.498l-1.679-1.6c0.341 1.693 0.182 3.443-0.461 5.054s-1.744 3.020-3.179 4.070z"></path>
<path fill="currentColor"  d="M12.716 20.818l0.045 0.009c1.534-1.046 2.704-2.505 3.358-4.191s0.762-3.519 0.31-5.264l-2.392-2.279c0.967 1.873 1.357 3.969 1.123 6.045s-1.082 4.045-2.444 5.68z"></path>
<path fill="currentColor"  d="M20.828 15.248c-0.406 1.747-1.393 3.323-2.814 4.493-0.415 0.344-0.862 0.65-1.337 0.915 1.157-0.324 2.22-0.897 3.108-1.674s1.576-1.739 2.013-2.81l-0.97-0.923z"></path>
<path fill="currentColor"  d="M20.447 14.991l-1.381-1.316c-0.026 1.5-0.474 2.966-1.296 4.246s-1.989 2.326-3.38 3.031h0.007c0.31-0 0.619-0.018 0.927-0.053 1.299-0.506 2.447-1.309 3.341-2.34s1.506-2.257 1.782-3.567z"></path>
<path fill="currentColor"  d="M12.916 8.133l-1.648-1.572c-1.473 0.542-2.739 1.496-3.635 2.735s-1.376 2.708-1.381 4.212v0c0.005 1.662 0.593 3.275 1.669 4.584s2.579 2.238 4.272 2.641c1.511-1.754 2.396-3.921 2.526-6.187s-0.502-4.512-1.804-6.412z"></path>
<path fill="currentColor"  d="M24.254 14.748c-0.006-1.972-0.831-3.862-2.295-5.257s-3.447-2.181-5.517-2.186c-0.957-0.001-1.905 0.167-2.797 0.496l10.088 9.611c0.345-0.849 0.522-1.753 0.522-2.664z"></path>
</symbol>
</defs>
</svg>
